<svg width="69" height="45" viewBox="0 0 69 45" fill="none" xmlns="http://www.w3.org/2000/svg">
<path d="M37.0361 24.6259L26.4083 41.9376L15.7805 24.6259H37.0361ZM39.8833 23.0786H12.9219L26.4083 44.9996L39.8833 23.0786Z" fill="#263238"/>
<path d="M55.5134 3.09446L66.1411 20.4061H44.8855L55.5134 3.09446ZM55.5134 0L42.0269 21.9209H68.9998L55.5134 0Z" fill="#263238"/>
<path d="M0 0L11.3079 19.3891L23.6647 0.486864L0 0Z" fill="#49AAEE"/>
<path d="M26.4082 1.69873L38.2694 20.9796H14.5239L26.4082 1.69873Z" fill="#49AAEE"/>
<path d="M41.3243 25.189L53.197 45.0001H28.8867L40.9554 25.189H41.3243Z" fill="#49AAEE"/>
<path d="M43.8945 23.9878L55.5136 43.4959L67.2941 23.9878H43.8945Z" fill="#49AAEE"/>
</svg>
