<?xml version="1.0" encoding="utf-8"?>
<!-- Generator: Adobe Illustrator 27.5.0, SVG Export Plug-In . SVG Version: 6.00 Build 0)  -->
<svg version="1.1" xmlns="http://www.w3.org/2000/svg" xmlns:xlink="http://www.w3.org/1999/xlink" x="0px" y="0px"
	 viewBox="0 0 750 500" style="enable-background:new 0 0 750 500;" xml:space="preserve">
<g id="BACKGROUND">
	<rect style="fill:#FFFFFF;" width="750" height="500"/>
</g>
<g id="OBJECTS">
	<path style="fill:#EEF6FF;" d="M82.037,470.593h602.342c16.91-34.298,36.668-99.472,16.755-128.127
		c-14.27-20.534-38.58-31.194-56.546-48.508c-53.306-51.368-38.319-144.648-82.503-204.217c-21.675-29.223-56.475-47.3-92.39-51.173
		c-35.915-3.872-72.626,5.812-103.812,24.242c-32.067,18.951-58.795,46.85-92.719,62.139
		c-27.058,12.194-56.861,14.874-84.629,24.655c-27.192,9.577-53.071,29.857-65.144,56.489c-13.36,29.471-10.628,63.605-4.018,94.415
		c8.686,40.492-6.593,66.368-38.727,86.342c-9.817,6.102-20.299,11.837-27.291,21.042C35.364,431.58,61.554,459.222,82.037,470.593z
		"/>
	<g>
		<g>
			
				<line style="fill:none;stroke:#A0794A;stroke-width:2;stroke-miterlimit:10;" x1="139.671" y1="70.776" x2="139.671" y2="470.878"/>
			<g>
				<path style="fill:none;stroke:#A0794A;stroke-width:1.5;stroke-miterlimit:10;" d="M105.7,184.595
					c0,1.63-1.322,2.952-2.952,2.952c-1.63,0-2.952-1.322-2.952-2.952c0-1.63,1.322-2.952,2.952-2.952
					C104.378,181.643,105.7,182.965,105.7,184.595z"/>
				
					<line style="fill:none;stroke:#A0794A;stroke-width:1.5;stroke-miterlimit:10;" x1="102.748" y1="181.643" x2="102.748" y2="104.806"/>
			</g>
			<polygon style="fill:#FFBF66;" points="181.508,48.591 97.834,48.591 83.551,135.191 195.791,135.191 			"/>
			<g>
				
					<line style="fill:none;stroke:#EDAA5A;stroke-width:1.5;stroke-miterlimit:10;" x1="104.679" y1="48.591" x2="91.427" y2="135.191"/>
				
					<line style="fill:none;stroke:#EDAA5A;stroke-width:1.5;stroke-miterlimit:10;" x1="111.45" y1="48.591" x2="101.396" y2="135.191"/>
				
					<line style="fill:none;stroke:#EDAA5A;stroke-width:1.5;stroke-miterlimit:10;" x1="119.373" y1="48.591" x2="111.45" y2="135.191"/>
				
					<line style="fill:none;stroke:#EDAA5A;stroke-width:1.5;stroke-miterlimit:10;" x1="127.301" y1="48.591" x2="121.511" y2="135.191"/>
				
					<line style="fill:none;stroke:#EDAA5A;stroke-width:1.5;stroke-miterlimit:10;" x1="135.298" y1="48.591" x2="132.64" y2="135.191"/>
				
					<line style="fill:none;stroke:#EDAA5A;stroke-width:1.5;stroke-miterlimit:10;" x1="174.663" y1="48.591" x2="187.915" y2="135.191"/>
				
					<line style="fill:none;stroke:#EDAA5A;stroke-width:1.5;stroke-miterlimit:10;" x1="167.892" y1="48.591" x2="177.946" y2="135.191"/>
				
					<line style="fill:none;stroke:#EDAA5A;stroke-width:1.5;stroke-miterlimit:10;" x1="159.969" y1="48.591" x2="167.892" y2="135.191"/>
				
					<line style="fill:none;stroke:#EDAA5A;stroke-width:1.5;stroke-miterlimit:10;" x1="152.041" y1="48.591" x2="157.831" y2="135.191"/>
				
					<line style="fill:none;stroke:#EDAA5A;stroke-width:1.5;stroke-miterlimit:10;" x1="144.044" y1="48.591" x2="146.702" y2="135.191"/>
			</g>
			<path style="fill:#FFBF66;" d="M83.551,470.878L83.551,470.878l112.24,0h0c-0.551-4.554-3.818-7.933-7.67-7.933H91.221
				C87.369,462.945,84.102,466.324,83.551,470.878z"/>
		</g>
		<g>
			<g>
				<path style="fill:#EF750D;" d="M668.853,406.898H533.521v-18.237c0-12.055,9.773-21.828,21.828-21.828h91.676
					c12.055,0,21.828,9.773,21.828,21.828V406.898z"/>
				<g>
					<defs>
						<path id="SVGID_1_" d="M668.853,406.898H533.521v-18.237c0-12.055,9.773-21.828,21.828-21.828h91.676
							c12.055,0,21.828,9.773,21.828,21.828V406.898z"/>
					</defs>
					<clipPath id="SVGID_00000059992723804550312470000002302760170321598131_">
						<use xlink:href="#SVGID_1_"  style="overflow:visible;"/>
					</clipPath>
					<g style="clip-path:url(#SVGID_00000059992723804550312470000002302760170321598131_);">
						<path style="fill:none;stroke:#D86B19;stroke-width:4;stroke-miterlimit:10;" d="M554.424,360.258
							c0.47,4.868,3.484,9.27,7.493,11.888c4.009,2.619,8.907,3.564,13.643,3.257c8.141-0.528,14.146-4.765,20.36-9.728
							c6.065-4.844,11.219-10.953,14.573-18.097"/>
						<path style="fill:none;stroke:#D86B19;stroke-width:4;stroke-miterlimit:10;" d="M535.966,352.953
							c-0.599,6.052,1.75,12.14,5.473,16.949c8.386,10.832,21.612,15.948,35.095,15.594c14.708-0.387,26.012-7.217,38.466-14.103
							c17.349-9.592,35.986-17.685,55.841-20.006"/>
						<path style="fill:none;stroke:#D86B19;stroke-width:4;stroke-miterlimit:10;" d="M565.378,414.171
							c9.624,0.317,19.069-2.724,27.823-6.734c8.754-4.01,17.03-9.01,25.808-12.968c15.359-6.926,32.295-10.582,49.121-9.708
							c16.826,0.874,33.51,6.378,47.045,16.412"/>
						<path style="fill:none;stroke:#D86B19;stroke-width:4;stroke-miterlimit:10;" d="M597.003,417.63
							c24.786-19.504,64.536-28.93,90.619-6.677c0.484,0.413,0.96,0.835,1.429,1.266"/>
						<path style="fill:none;stroke:#D86B19;stroke-width:4;stroke-miterlimit:10;" d="M525.93,384.033
							c2.465,2.418,5.193,4.562,8.117,6.381c8.999,5.597,19.738,7.99,30.293,7.747c13.467-0.311,25.254-4.728,37.137-10.644
							c16.411-8.171,33.236-19.176,51.338-22.698c8.509-1.656,17.261-1.59,25.906-0.965"/>
					</g>
				</g>
				
					<line style="fill:none;stroke:#59351B;stroke-width:2;stroke-miterlimit:10;" x1="668.853" y1="406.898" x2="533.521" y2="406.898"/>
				<g>
					
						<line style="fill:none;stroke:#59351B;stroke-width:2;stroke-miterlimit:10;" x1="537.45" y1="406.898" x2="537.45" y2="470.878"/>
					
						<line style="fill:none;stroke:#59351B;stroke-width:2;stroke-miterlimit:10;" x1="664.924" y1="406.898" x2="664.924" y2="470.878"/>
				</g>
			</g>
			<g>
				<rect x="547.114" y="341.831" style="fill:#BFC4E8;" width="78.87" height="25.002"/>
				
					<rect x="625.983" y="341.831" transform="matrix(-1 -1.224647e-16 1.224647e-16 -1 1287.6965 708.6645)" style="fill:#BFC4E8;" width="35.73" height="25.002"/>
				<rect x="547.114" y="346.171" style="fill:#FFFFFF;" width="70.075" height="16.322"/>
				<line style="fill:none;stroke:#231F20;stroke-miterlimit:10;" x1="617.189" y1="358.737" x2="547.114" y2="358.737"/>
				<line style="fill:none;stroke:#231F20;stroke-miterlimit:10;" x1="625.983" y1="341.831" x2="625.983" y2="366.833"/>
				<line style="fill:none;stroke:#231F20;stroke-miterlimit:10;" x1="633.317" y1="341.831" x2="633.317" y2="366.833"/>
				<line style="fill:none;stroke:#231F20;stroke-miterlimit:10;" x1="656.541" y1="341.831" x2="656.541" y2="366.833"/>
				<polygon style="fill:#D34A37;" points="561.337,353.851 558.994,364.727 568.932,365.5 571.761,353.851 				"/>
				<line style="fill:none;stroke:#231F20;stroke-miterlimit:10;" x1="617.189" y1="353.851" x2="547.114" y2="353.851"/>
				<polygon style="fill:#FFF3C0;" points="583.151,350.126 579.984,372.132 585.941,366.837 593.412,373.694 597.236,350.126 				
					"/>
				<line style="fill:none;stroke:#231F20;stroke-miterlimit:10;" x1="617.189" y1="350.126" x2="547.114" y2="350.126"/>
			</g>
			<g>
				<rect x="539.369" y="306.963" style="fill:#98A48D;" width="59.995" height="34.869"/>
				
					<rect x="599.365" y="306.963" transform="matrix(-1 -1.224647e-16 1.224647e-16 -1 1250.9752 648.794)" style="fill:#98A48D;" width="52.246" height="34.869"/>
				<rect x="539.369" y="313.015" style="fill:#FFFFFF;" width="52.017" height="22.763"/>
				<line style="fill:none;stroke:#231F20;stroke-miterlimit:10;" x1="591.386" y1="318.531" x2="539.369" y2="318.531"/>
				<line style="fill:none;stroke:#231F20;stroke-miterlimit:10;" x1="591.386" y1="323.726" x2="539.369" y2="323.726"/>
				<line style="fill:none;stroke:#231F20;stroke-miterlimit:10;" x1="591.386" y1="330.541" x2="539.369" y2="330.541"/>
				<line style="fill:none;stroke:#231F20;stroke-miterlimit:10;" x1="599.365" y1="306.963" x2="599.365" y2="341.831"/>
				<rect x="607.771" y="312.661" style="fill:#B2BFA5;" width="28.406" height="23.473"/>
				<line style="fill:none;stroke:#231F20;stroke-miterlimit:10;" x1="645.964" y1="312.661" x2="645.964" y2="336.133"/>
				<line style="fill:none;stroke:#231F20;stroke-miterlimit:10;" x1="641.867" y1="316.228" x2="641.867" y2="332.566"/>
			</g>
			<g>
				
					<rect x="596.992" y="267.479" transform="matrix(-1 -1.224647e-16 1.224647e-16 -1 1255.5479 574.4421)" style="fill:#DD97BA;" width="61.564" height="39.483"/>
				<rect x="543.181" y="267.479" style="fill:#DD97BA;" width="53.811" height="39.483"/>
				
					<rect x="605.209" y="274.333" transform="matrix(-1 -1.224647e-16 1.224647e-16 -1 1263.7651 574.4421)" style="fill:#FFEED4;" width="53.347" height="25.776"/>
				<line style="fill:none;stroke:#A36286;stroke-miterlimit:10;" x1="605.209" y1="296.116" x2="658.556" y2="296.116"/>
				<line style="fill:none;stroke:#A36286;stroke-miterlimit:10;" x1="596.992" y1="267.479" x2="596.992" y2="306.963"/>
				<line style="fill:none;stroke:#A36286;stroke-miterlimit:10;" x1="588.653" y1="273.931" x2="588.653" y2="300.511"/>
				<line style="fill:none;stroke:#A36286;stroke-miterlimit:10;" x1="658.557" y1="285.422" x2="634.483" y2="285.422"/>
				<line style="fill:none;stroke:#A36286;stroke-miterlimit:10;" x1="583.522" y1="278.326" x2="583.522" y2="296.116"/>
				<ellipse style="fill:none;stroke:#A36286;stroke-miterlimit:10;" cx="570.503" cy="286.479" rx="9.481" ry="7.031"/>
				<polygon style="fill:#989DD8;" points="648.554,280.579 639.364,280.579 643.363,293.51 652.656,293.51 				"/>
				<polygon style="fill:#D36F37;" points="621.533,285.422 613.753,285.422 616.521,293.875 624.372,293.875 				"/>
				<line style="fill:none;stroke:#A36286;stroke-miterlimit:10;" x1="605.209" y1="280.579" x2="658.556" y2="280.579"/>
				<line style="fill:none;stroke:#A36286;stroke-miterlimit:10;" x1="605.209" y1="285.422" x2="629.313" y2="285.422"/>
			</g>
			<g>
				<rect x="559.04" y="253.233" style="fill:#FF8C3C;" width="65.833" height="14.247"/>
				
					<rect x="624.873" y="253.233" transform="matrix(-1 -1.224647e-16 1.224647e-16 -1 1286.7268 520.7122)" style="fill:#FF8C3C;" width="36.981" height="14.247"/>
				<rect x="559.04" y="255.706" style="fill:#FFFFFF;" width="57.616" height="9.301"/>
				<line style="fill:none;stroke:#231F20;stroke-miterlimit:10;" x1="616.655" y1="261.785" x2="559.04" y2="261.785"/>
				<line style="fill:none;stroke:#231F20;stroke-miterlimit:10;" x1="624.873" y1="253.233" x2="624.873" y2="267.48"/>
				<line style="fill:none;stroke:#231F20;stroke-miterlimit:10;" x1="616.656" y1="258.882" x2="575.722" y2="258.882"/>
				<line style="fill:none;stroke:#231F20;stroke-miterlimit:10;" x1="559.039" y1="258.882" x2="570.552" y2="258.882"/>
			</g>
			<g>
				
					<rect x="584.471" y="231.738" transform="matrix(-1 -1.224647e-16 1.224647e-16 -1 1235.5331 484.9701)" style="fill:#F2C5A7;" width="66.59" height="21.495"/>
				<rect x="551.501" y="231.738" style="fill:#F2C5A7;" width="32.971" height="21.495"/>
				
					<rect x="594.167" y="235.469" transform="matrix(-1 -1.224647e-16 1.224647e-16 -1 1245.2284 484.9701)" style="fill:#FFFFFF;" width="56.895" height="14.033"/>
				<line style="fill:none;stroke:#AA7955;stroke-miterlimit:10;" x1="594.167" y1="244.642" x2="651.062" y2="244.642"/>
				<line style="fill:none;stroke:#AA7955;stroke-miterlimit:10;" x1="584.471" y1="231.738" x2="584.471" y2="253.233"/>
				<line style="fill:none;stroke:#AA7955;stroke-miterlimit:10;" x1="594.167" y1="240.262" x2="623.91" y2="240.262"/>
				<line style="fill:none;stroke:#AA7955;stroke-miterlimit:10;" x1="651.062" y1="240.261" x2="627.666" y2="240.261"/>
				<line style="fill:none;stroke:#AA7955;stroke-miterlimit:10;" x1="558.519" y1="234.97" x2="558.519" y2="250"/>
				<line style="fill:none;stroke:#AA7955;stroke-miterlimit:10;" x1="562.685" y1="234.97" x2="562.685" y2="250"/>
			</g>
			<g>
				<polygon style="fill:#FCD4D2;" points="646.49,253.233 611.421,253.233 602.6,200.882 637.669,200.882 				"/>
				<polygon style="fill:#FCD4D2;" points="602.709,253.233 611.421,253.233 602.6,200.882 593.888,200.882 				"/>
				<line style="fill:none;stroke:#E0A3A2;stroke-miterlimit:10;" x1="602.6" y1="200.882" x2="611.421" y2="253.233"/>
				<line style="fill:none;stroke:#E0A3A2;stroke-miterlimit:10;" x1="612.632" y1="205.848" x2="631.595" y2="205.848"/>
				<line style="fill:none;stroke:#E0A3A2;stroke-miterlimit:10;" x1="622.6" y1="244.642" x2="634.012" y2="244.642"/>
				<line style="fill:none;stroke:#E0A3A2;stroke-miterlimit:10;" x1="618.825" y1="248.507" x2="637.788" y2="248.507"/>
				<line style="fill:none;stroke:#E0A3A2;stroke-miterlimit:10;" x1="595.593" y1="211.636" x2="604.34" y2="211.636"/>
				<line style="fill:none;stroke:#E0A3A2;stroke-miterlimit:10;" x1="601.992" y1="249.234" x2="610.739" y2="249.234"/>
				<path style="fill:#FFFFFF;" d="M635.237,219.531c-4.036,1.928-3.691,1.518-4.932,5.86c-2.615-4.342-2.141-3.932-6.788-5.86
					c4.036-1.928,3.691-1.518,4.932-5.86C631.064,218.013,630.59,217.603,635.237,219.531z"/>
				<path style="fill:#FFFFFF;" d="M628.691,229.057c-2.856,1.364-2.612,1.074-3.489,4.146c-1.85-3.072-1.515-2.782-4.802-4.146
					c2.855-1.364,2.612-1.074,3.489-4.146C625.739,227.983,625.403,227.693,628.691,229.057z"/>
			</g>
		</g>
	</g>
	<g>
		<g>
			
				<line style="fill:none;stroke:#393F5B;stroke-width:1.5;stroke-miterlimit:10;" x1="495.701" y1="350.681" x2="514.87" y2="470.593"/>
			
				<line style="fill:none;stroke:#393F5B;stroke-width:1.5;stroke-miterlimit:10;" x1="431.731" y1="350.681" x2="450.899" y2="470.593"/>
			
				<line style="fill:none;stroke:#393F5B;stroke-width:1.5;stroke-miterlimit:10;" x1="348.402" y1="350.681" x2="329.234" y2="470.593"/>
			
				<line style="fill:none;stroke:#393F5B;stroke-width:1.5;stroke-miterlimit:10;" x1="412.373" y1="350.681" x2="393.205" y2="470.593"/>
			<g>
				<path style="fill:#989DD8;" d="M499.104,350.681H367.925l27.878-185.627c2.335-15.55,15.123-27.006,30.146-27.006h73.819
					c16.422,0,28.962,15.37,26.409,32.368L499.104,350.681z"/>
				<path style="fill:none;stroke:#6F77B2;stroke-width:1.5;stroke-miterlimit:10;" d="M417.998,148.252h78.138
					c11.505,0,20.29,10.768,18.502,22.677l-26.996,179.751"/>
			</g>
			<path style="fill:#989DD8;" d="M498.975,350.681H344.093l0,0c0-6.783,5.499-12.282,12.282-12.282h130.319
				C493.476,338.399,498.975,343.898,498.975,350.681L498.975,350.681z"/>
			<path style="fill:none;stroke:#6F77B2;stroke-width:1.5;stroke-miterlimit:10;" d="M356.374,338.399h130.319
				c6.783,0,12.282,5.499,12.282,12.282"/>
		</g>
		<g>
			<g>
				<path style="fill:#98A48D;" d="M215.972,233.647c-4.909-30.76-19.682-45.854-19.682-45.854l-18.487-2.605
					c0,0,19.131,28.928,29.341,48.459"/>
				<path style="fill:none;stroke:#2B301F;stroke-width:1.5;stroke-miterlimit:10;" d="M189.205,187.852
					c0,0,19.512,30.309,22.525,45.795"/>
				<path style="fill:#6D8257;" d="M177.803,185.189c-5.953,4.385-8.884,9.876-11.098,15.306
					c-2.528,6.202-4.283,12.509-5.244,18.857c12.078-9.602,27.603-20.438,34.829-31.558L177.803,185.189z"/>
				
					<line style="fill:none;stroke:#2B301F;stroke-width:1.5;stroke-miterlimit:10;" x1="161.461" y1="219.351" x2="186.066" y2="186.353"/>
			</g>
			<path style="fill:#98A48D;" d="M206.975,151.05c-11.352,30.147,1.28,62.889,12.962,91.758
				C225.392,210.288,220.682,171.328,206.975,151.05z"/>
			<path style="fill:none;stroke:#2B301F;stroke-width:1.5;stroke-miterlimit:10;" d="M205.508,198.381
				c3.232,12.969,7.57,25.674,12.954,37.941"/>
			
				<line style="fill:none;stroke:#2B301F;stroke-width:1.5;stroke-miterlimit:10;" x1="206.975" y1="151.05" x2="222.419" y2="264.356"/>
			<path style="fill:#6D8257;" d="M243.552,136.519c-22.39,25.739-32.835,98.506-24.99,101.034
				C226.406,240.082,251.085,169.817,243.552,136.519z"/>
			
				<line style="fill:none;stroke:#2B301F;stroke-width:1.5;stroke-miterlimit:10;" x1="243.552" y1="136.519" x2="213.908" y2="259.476"/>
			<g>
				<path style="fill:#98A48D;" d="M220.689,242.304c10.368-45.385,24.625-59.008,24.625-59.008l17.672-5.912
					c0,0-20.064,36.802-33.623,63.319"/>
				<path style="fill:none;stroke:#2B301F;stroke-width:1.5;stroke-miterlimit:10;" d="M252.644,182.551
					c0,0-18.046,31.617-27.786,58.983"/>
				<path style="fill:#6D8257;" d="M262.986,177.383c6.682,3.229,16.03,14.15,18.429,23.858
					c-14.512-1.213-26.89-8.329-36.101-17.945L262.986,177.383z"/>
				
					<line style="fill:none;stroke:#2B301F;stroke-width:1.5;stroke-miterlimit:10;" x1="281.415" y1="201.241" x2="255.088" y2="180.026"/>
			</g>
			<g>
				<polygon style="fill:#EF750D;" points="244.538,272.606 236.819,231.941 203.317,231.941 195.598,272.606 203.317,285.047 
					236.819,285.047 				"/>
				
					<line style="fill:none;stroke:#231F20;stroke-width:1.5;stroke-miterlimit:10;" x1="195.598" y1="272.606" x2="226.892" y2="272.606"/>
				
					<line style="fill:none;stroke:#231F20;stroke-width:1.5;stroke-miterlimit:10;" x1="233.964" y1="272.606" x2="244.538" y2="272.606"/>
			</g>
		</g>
		<g>
			<rect x="493.602" y="242.676" style="fill:#F9BF64;" width="31.403" height="42.253"/>
			<g>
				<path style="fill:#F9BF64;" d="M526.392,277.938h-19.458v-27.574h19.458c5.374,0,9.746,4.371,9.746,9.745v8.083
					C536.138,273.566,531.766,277.938,526.392,277.938z M510.631,274.241h15.761c3.335,0,6.049-2.714,6.049-6.049v-8.083
					c0-3.335-2.714-6.048-6.049-6.048h-15.761V274.241z"/>
			</g>
			
				<line style="fill:none;stroke:#231F20;stroke-width:1.5;stroke-miterlimit:10;" x1="493.602" y1="247.735" x2="525.005" y2="247.735"/>
			
				<line style="fill:none;stroke:#231F20;stroke-width:1.5;stroke-miterlimit:10;" x1="493.602" y1="280.287" x2="525.005" y2="280.287"/>
		</g>
		<g>
			<g>
				<path style="fill:#FFBF82;" d="M301.176,270.552c4.591-3.364,5.909-9.608,4.698-14.947c-0.733-3.233-2.317-6.294-4.667-8.631
					c-2.005-1.995-4.513-3.424-7.125-4.508c-2.654-1.101-5.65-1.867-8.38-0.971c-2.023,0.664-3.644,2.156-5.372,3.399
					c-2.066,1.486-4.361,2.655-6.778,3.452c-1.97,0.65-4.151,1.133-5.516,2.696c-0.999,1.143-1.395,2.76-1.138,4.256
					c0.257,1.496,1.135,2.857,2.329,3.793c-1.081,0.741-1.561,2.189-1.31,3.475c0.251,1.286,1.152,2.39,2.273,3.069
					c0.249,0.151,0.517,0.289,0.693,0.521c0.411,0.538,0.169,1.299,0.17,1.976c0.001,1.126,0.751,2.146,1.692,2.763
					c1.805,1.184,4.346,1.687,6.461,1.883c1.052,0.097,2.132,0.102,3.141-0.21c1.009-0.312,1.947-0.977,2.394-1.933
					c0.121-0.26,3.638,1.537,4.002,1.669c1.361,0.491,2.804,0.746,4.25,0.774C295.894,273.134,298.827,272.273,301.176,270.552z"/>
				<path style="fill:#FFBF82;" d="M326.192,212.985l-8.359,28.922l-34.786,9.034l8.872,20.229c0,0,28.341,2.332,36.643,1.91
					c8.302-0.422,15.556-2.381,20.396-11.946c4.308-8.513,11.317-35.914,11.317-35.914"/>
				<path style="fill:#FFBF82;" d="M290.903,241.421c-2.495-0.641-7.711-1.778-10.284-1.893c-1.475-0.066-4.118,0.464-5.445,1.11
					c-1.165,0.567-2.071,1.564-2.775,2.652c-0.593,0.917-1.066,1.926-1.267,3c-0.2,1.068-0.126,2.164-0.156,3.25
					c-0.032,1.145-0.158,2.285-0.358,3.413c-0.133,0.751-0.786,2.119-0.085,2.734c1.305,1.147,3.002,1.033,4.477,0.234
					c1.602-0.868,2.286-2.788,2.665-4.571c0.379-1.782,0.635-3.699,1.805-5.095"/>
				<path style="fill:none;stroke:#231F20;stroke-miterlimit:10;" d="M270.884,249.082c0.066,1.533-0.206,3.061-0.591,4.54
					c-0.097,0.373-0.203,0.747-0.224,1.133c-0.021,0.386,0.051,0.792,0.275,1.097c0.726,0.988,2.171,0.847,3.199,0.641
					c1.278-0.256,2.365-1.013,3.035-2.202c0.814-1.447,0.943-3.056,1.388-4.621c0.266-0.934,0.604-1.846,0.978-2.742"/>
				<path style="fill:none;stroke:#231F20;stroke-miterlimit:10;" d="M270.178,254.172c0.453,0.075,0.905,0.151,1.358,0.226
					c0.338,0.056,0.678,0.113,1.02,0.117c0.391,0.005,0.81-0.073,1.091-0.371c0.478-0.507,0.837-2.012-0.088-2.277
					c-0.185-0.053-0.379-0.047-0.57-0.041c-0.761,0.023-1.521,0.047-2.282,0.07"/>
				<path style="fill:#31212F;" d="M373.771,181.807c-5.3,0.349-14.249-0.728-19.547-0.345c-6.009,0.434-13.492,2.806-17.811,7.17
					c-2.438,2.463-4.248,5.467-5.969,8.475c-4.929,8.615-11.258,36.748-11.258,36.748l37.244,8.822l7.105-29.691"/>
				<path style="fill:none;stroke:#231F20;stroke-miterlimit:10;" d="M269.129,259.244c2.032,0.859,4.086,1.695,6.224,2.256
					c2.084,0.547,4.305,0.412,6.407-0.007c0.745-0.149,1.503-0.354,2.112-0.808c0.474-0.353,0.836-0.844,1.079-1.382
					c0.753-1.666,0.267-3.806-1.133-4.983"/>
				<path style="fill:none;stroke:#231F20;stroke-miterlimit:10;" d="M270.782,266.143c3.322,1.289,6.952,1.778,10.497,1.413
					c2.121-0.218,3.831-1.676,4.078-3.895c0.13-1.173-0.236-2.446-1.146-3.198"/>
				<path style="fill:none;stroke:#231F20;stroke-miterlimit:10;" d="M281.936,272.738c3.039-0.254,4.28-4.461,2.049-6.342"/>
				<g>
					<path style="fill:none;stroke:#5F558A;stroke-miterlimit:10;" d="M287.487,226.949c0,0,2.47,0.02,2.03,1.306
						c-0.148,0.431-1.651,4.822-1.9,5.55c-0.249,0.727-1.332,1.769-1.673,2.766c-0.341,0.997,0.423,1.442,0.423,1.442"/>
					<g>
						<path style="fill:#28243E;" d="M288.325,225.556l0.3-0.874c0.193-0.561-0.201-1.207-0.878-1.443l-0.741-0.257
							c-0.678-0.235-1.384,0.029-1.576,0.591l-0.3,0.874l-0.362-0.126l-15.2,44.321l3.921,1.36l15.2-44.321L288.325,225.556z"/>
						<path style="fill:#28243E;" d="M270.249,272.245c0.037,0.185,0.302,0.277,0.445,0.154l2.794-2.397l-3.967-1.376
							L270.249,272.245z"/>
					</g>
					<line style="fill:none;stroke:#5F558A;stroke-miterlimit:10;" x1="288.687" y1="225.682" x2="284.767" y2="224.322"/>
					<line style="fill:none;stroke:#5F558A;stroke-miterlimit:10;" x1="273.487" y1="270.002" x2="269.52" y2="268.626"/>
					<line style="fill:none;stroke:#5F558A;stroke-miterlimit:10;" x1="283.838" y1="239.811" x2="279.938" y2="238.389"/>
				</g>
				<g>
					<path style="fill:#FFBF82;" d="M292.182,246.291c-1.198-0.096-2.395-0.192-3.593-0.288c-1.681-0.135-3.302-0.194-4.898,0.437
						c-1.34,0.53-2.402,1.565-3.714,2.124c-0.749,0.319-1.689,0.239-2.276,0.802c-2.545,2.441,1.337,4.793,3.285,4.823
						c1.312,0.02,2.58-0.344,3.84-0.664c1.314-0.333,2.491-0.768,3.39,0.544c0.33,0.482,0.523,1.041,0.707,1.595
						c0.554,1.676,1.051,3.381,1.841,4.959c0.364,0.726,0.795,1.43,1.375,1.998c0.536,0.525,1.188,0.921,1.87,1.235
						c1.054,0.485,2.194,0.781,3.351,0.871"/>
					<path style="fill:none;stroke:#231F20;stroke-miterlimit:10;" d="M278.237,249.055c2.189-0.861,4.168-2.165,6.32-3.107
						c2.343-1.026,4.348-1.303,6.801-0.607"/>
					<path style="fill:none;stroke:#231F20;stroke-miterlimit:10;" d="M278.944,253.689c1.457,0.369,3.011,0.318,4.457-0.147
						c1.016-0.327,2.05-0.86,3.082-0.641c1.042,0.221,1.817,1.176,2.263,2.209c0.446,1.032,0.641,2.172,1.007,3.241
						c0.848,2.477,2.656,4.541,4.904,5.599"/>
					<path style="fill:none;stroke:#231F20;stroke-miterlimit:10;" d="M278.237,249.055c0.487,0.427,0.535,1.208,1.027,1.629
						c0.4,0.343,0.981,0.353,1.506,0.31c0.284-0.023,0.594-0.069,0.785-0.281c0.181-0.2,0.204-0.505,0.128-0.763
						c-0.076-0.259-0.237-0.483-0.395-0.701c-0.234-0.323-0.468-0.646-0.702-0.97"/>
				</g>
				<path style="fill:none;stroke:#231F20;stroke-miterlimit:10;" d="M299.487,271.562c1.408-0.26,2.816-0.52,4.223-0.78
					c0.267-0.049,0.543-0.102,0.77-0.25"/>
				<path style="fill:none;stroke:#231F20;stroke-miterlimit:10;" d="M300.033,245.83c2,0.533,4.038,0.926,6.093,1.176"/>
				<path style="fill:none;stroke:#231F20;stroke-miterlimit:10;" d="M317.469,241.667c6.543-0.816,11.394-0.565,16.352,0.135
					c4.384,0.62,9.715,2.268,12.657,5.873"/>
				<line style="fill:none;stroke:#6B5569;stroke-miterlimit:10;" x1="321.024" y1="225.667" x2="358.222" y2="234.424"/>
				<path style="fill:#31212F;" d="M346.795,203.783l18.274-21.46l39.784-13.836c0,0,34.579,11.503,40.356,19.49
					c5.776,7.987,17.802,36.937,24.609,63.845c6.807,26.908,8.112,39.466,8.112,39.466h-97.174
					c-9.436-30.351-21.167-59.886-35.042-88.221"/>
				<path style="fill:none;stroke:#6B5569;stroke-miterlimit:10;" d="M359.318,232.582c-3.394-9.057-8.084-17.628-13.883-25.369"/>
				<path style="fill:none;stroke:#6B5569;stroke-miterlimit:10;" d="M363.589,185.7c7.694,12.638,26.448,7.706,34.142-1.997
					c3.113-3.927,5.523-8.594,5.998-13.585"/>
			</g>
			<g>
				<path style="fill:#FFBF82;" d="M419.471,211.861l6.517,35.84c0,0-20.798-1.445-41.068-0.37l2.779,24.068
					c0,0,40.745,15.42,64.226,13.467c22.972-1.911,21.134-22.023,17.967-39.586c-1.838-10.195-10.757-46.71-10.757-46.71"/>
				<g>
					<path style="fill:#FFBF82;" d="M380.919,246.496c-2.842-0.272-5.726-0.413-8.541,0.13c-4.542,0.877-9.189,2.81-13.06,5.513
						c-1.74,1.215-3.484,2.483-4.84,4.166c-2.363,2.932-4.322,7.08-5.196,10.827c-0.444,1.904-0.502,3.879-0.558,5.837
						c-0.058,2.038,3.205,1.969,4.259,1.543c0.251-0.101,0.469-0.227,0.673-0.364c-0.006,0.187-0.013,0.375-0.019,0.561
						c-0.058,2.038,3.205,1.969,4.259,1.543c0.786-0.318,1.317-0.826,1.721-1.447c-0.005,0.035-0.011,0.07-0.017,0.104
						c-0.272,1.759,2.957,2.211,4.043,2.006c1.025-0.193,1.68-0.715,2.197-1.395c-0.164,1.557,3.143,2.055,4.255,1.902
						c2.357-0.323,2.812-2.135,3.872-3.854c0.409-0.664,0.725-1.618,1.407-2.041c0.852-0.529,2.244-0.614,3.201-0.86
						c0.335-0.086,0.677-0.173,1.019-0.138c0.376,0.038,0.723,0.221,1.064,0.393c2.08,1.044,4.344,1.768,6.651,1.725
						c2.306-0.043,4.661-0.913,6.277-2.683l2.758-21.888C396.347,248.076,385.843,246.969,380.919,246.496z"/>
					<path style="fill:none;stroke:#231F20;stroke-miterlimit:10;" d="M364.232,253.88c-1.742,1.237-3.487,2.527-4.845,4.239
						c-2.366,2.983-4.33,7.201-5.209,11.009c-0.446,1.935-0.507,3.943-0.565,5.933"/>
					<path style="fill:none;stroke:#231F20;stroke-miterlimit:10;" d="M372.247,258.558c-1.847,0.797-3.703,1.64-5.22,2.91
						c-2.643,2.213-5.018,5.563-6.279,8.729c-0.64,1.609-0.908,3.342-1.171,5.061"/>
					<path style="fill:none;stroke:#231F20;stroke-miterlimit:10;" d="M378.533,260.919c-1.902,0.685-3.812,1.411-5.36,2.539
						c-2.698,1.966-5.089,4.983-6.327,7.861c-0.629,1.463-0.867,3.049-1.101,4.621"/>
					<path style="fill:none;stroke:#231F20;stroke-miterlimit:10;" d="M390.457,272.23c2.702-0.68,5.444-1.725,7.305-3.798"/>
					<path style="fill:none;stroke:#231F20;stroke-miterlimit:10;" d="M366.071,274.787c0.937,0.466,2.007,0.66,3.048,0.553
						c0.291-0.03,0.586-0.085,0.838-0.233c0.514-0.302,0.743-0.917,0.888-1.495c0.055-0.217,0.102-0.449,0.03-0.661
						c-0.122-0.358-0.528-0.522-0.891-0.629c-0.922-0.271-1.869-0.46-2.824-0.563"/>
					<path style="fill:none;stroke:#231F20;stroke-miterlimit:10;" d="M359.76,274.315c1.005,0.366,2.108,0.46,3.161,0.27
						c0.226-0.041,0.461-0.101,0.624-0.262c0.145-0.144,0.21-0.347,0.264-0.544c0.12-0.436,0.209-0.88,0.267-1.328
						c0.019-0.15,0.035-0.305-0.005-0.451c-0.091-0.337-0.442-0.531-0.772-0.645c-0.819-0.284-1.7-0.314-2.566-0.342"/>
					<path style="fill:none;stroke:#231F20;stroke-miterlimit:10;" d="M353.782,274.146c1.054,0.123,2.122,0.126,3.176,0.01
						c0.254-0.028,0.523-0.07,0.716-0.238c0.254-0.222,0.3-0.594,0.329-0.931c0.052-0.611,0.066-1.322-0.4-1.721
						c-0.347-0.298-0.848-0.314-1.305-0.315c-0.609-0.002-1.219-0.003-1.828-0.005"/>
					<path style="fill:none;stroke:#231F20;stroke-miterlimit:10;" d="M348.643,272.636c0.782,0.186,1.604,0.321,2.408,0.324
						c0.388,0.001,0.864-0.037,1.161-0.321c0.373-0.356,0.226-0.836,0.247-1.29c0.009-0.197,0.013-0.4-0.055-0.585
						c-0.103-0.282-0.361-0.485-0.641-0.594c-0.28-0.109-0.584-0.136-0.883-0.161c-0.659-0.057-1.319-0.114-1.978-0.172"/>
				</g>
				<path style="fill:#31212F;" d="M403.73,169.021c8.093-3.969,16.639-5.832,24.608-5.867c13.206-0.057,21.284,8.023,26.878,19.861
					c6.05,12.806,13.07,46.381,13.07,46.381l-46.524,6.153l-8.459-40.98"/>
				<line style="fill:none;stroke:#6B5569;stroke-miterlimit:10;" x1="421.762" y1="235.551" x2="413.303" y2="194.57"/>
				<path style="fill:none;stroke:#231F20;stroke-miterlimit:10;" d="M425.569,247.711c11.451-0.336,22.967,1.757,33.567,6.102"/>
				<line style="fill:none;stroke:#6B5569;stroke-miterlimit:10;" x1="419.776" y1="225.928" x2="466.216" y2="220.107"/>
			</g>
			<g>
				<g>
					<path style="fill:#FFBF82;" d="M305.381,465.42c5.555,0,4.372-5.66,5.577-16.837c1.199-11.13,7.195-28.815,7.195-28.815
						l-56.131,5.891c0,0-1.804,10.862-2.615,12.723c-0.81,1.861-2.25,3.324-3.83,4.46c-6.218,4.472-13.803,6.123-19.605,11.391
						c-3.162,2.871-5.674,6.875-6.497,11.187C229.475,465.42,289.666,465.42,305.381,465.42z"/>
					<rect x="219.44" y="465.42" style="fill:#31212F;" width="92.303" height="5.173"/>
					<path style="fill:#31212F;" d="M253.829,444.005c0,0-13.483,4.319-23.125,8.295c-11.953,4.93-11.264,13.12-11.264,13.12h51.86
						C266.219,451.718,253.829,444.005,253.829,444.005z"/>
				</g>
				<path style="fill:#6B543C;" d="M420.438,291.289c0,0-87.252,0-95.801,0c-8.549,0-27.419,2.533-37.137,32.533
					c-9.717,30.001-28.255,110.707-28.255,110.707h57.228l25.193-96.557c0,0,54.556,0,78.772,0s44.91-18.184,39.186-43.655"/>
				<path style="fill:none;stroke:#231F20;stroke-miterlimit:10;" d="M308.816,434.529l25.193-96.557c0,0,54.555,0,78.771,0"/>
				<g>
					<path style="fill:#FFBF82;" d="M426.297,465.42c11.434,0-7.651-43.374-7.651-43.374l-41.771,10.406
						c0.998,1.764,0.899,4.069,0.072,5.93c-0.827,1.861-2.296,3.324-3.909,4.46c-6.346,4.472-14.088,6.123-20.009,11.391
						c-3.227,2.871-5.791,6.875-6.631,11.187C346.398,465.42,410.258,465.42,426.297,465.42z"/>
					<rect x="336.157" y="465.42" style="fill:#31212F;" width="95.685" height="5.173"/>
					<path style="fill:#31212F;" d="M371.255,444.005c0,0-15.074,4.16-24.856,8.273c-9.783,4.113-10.242,13.142-10.242,13.142
						h52.929C383.9,451.718,371.255,444.005,371.255,444.005z"/>
				</g>
				<path style="fill:#6B543C;" d="M456.532,291.289c0,0-84.181,0-95.219,0c-11.038,0-41.451,5.315-28.897,43.599
					c12.554,38.284,34.719,99.641,34.719,99.641h59.498l-34.211-95.218c0,0,44.755,0,60.88,0s35.126-16.506,24.629-48.022"/>
				<path style="fill:none;stroke:#231F20;stroke-miterlimit:10;" d="M419.952,434.529l-33.208-91.342
					c-1.15-3.489-2.027-7.014,1.647-7.014h56.097c16.125,0,35.126-16.506,24.629-48.022"/>
				<path style="fill:none;stroke:#231F20;stroke-miterlimit:10;" d="M361.313,291.289c-11.038,0-41.451,5.315-28.897,43.599
					c1.784,5.441,3.83,11.578,6.026,18.105"/>
				<line style="fill:none;stroke:#231F20;stroke-miterlimit:10;" x1="392.422" y1="339.311" x2="382.208" y2="339.311"/>
				<line style="fill:none;stroke:#231F20;stroke-miterlimit:10;" x1="362.614" y1="422.206" x2="421.534" y2="422.206"/>
				<line style="fill:none;stroke:#231F20;stroke-miterlimit:10;" x1="319.546" y1="422.047" x2="262.073" y2="422.047"/>
			</g>
			<g>
				<path style="fill:#EF750D;" d="M349.061,147.348c-2.395,1.859-3.897,4.804-4.055,7.827c-0.234,4.486,0.629,9.229,1.464,13.614
					c1.224,6.428,6.124,25.959,6.124,25.959l-15.916,3.402c0,0-3.665-14.345-3.765-28.236c-0.046-6.342,0.413-11.752,3.223-17.526
					c1.813-3.725,5.322-6.388,9.33-7.435"/>
				<path style="fill:#EF750D;" d="M347.536,140.281c-3.902-0.751-7.987-0.036-11.658,1.486c-3.671,1.522-6.969,3.819-10.075,6.298
					c-7.867,6.281-14.902,14.235-17.576,23.94l13.216,6.274c2.383-9.697,7.325-18.752,14.191-26.003
					c3.708-3.915,8.142-7.399,13.375-8.701"/>
				<path style="fill:none;stroke:#231F20;stroke-miterlimit:10;" d="M336.791,150.922c1.519-1.583,3.121-3.111,4.792-4.569"/>
				<path style="fill:none;stroke:#231F20;stroke-miterlimit:10;" d="M315.991,165.833c5.842-9.534,14.81-17.197,25.147-21.485"/>
				<path style="fill:#FFBF82;" d="M360.385,163.794l6.391,19.101c0,0,2.628,6.624,13.635,4.854
					c15.249-2.452,19.514-15.246,19.514-15.246l-14.919-26.407L360.385,163.794z"/>
				<path style="fill:#FFBF82;" d="M380.579,138.116c-4.406-8.307-10.067-11.03-19.542-10.915
					c-12.572,0.153-22.043,9.133-18.738,20.941c3.449,12.326,7.805,25.911,14.661,29.927c11.863,6.949,24.026-8.473,26.221-19.709
					C384.608,151.048,384.024,144.612,380.579,138.116z"/>
				<path style="fill:#222021;" d="M332.906,138.468c0.172,0.564,0.431,1.103,0.784,1.592c1.052,1.458,3.07,1.871,4.86,1.703
					c1.55-0.146,2.789-0.922,4.244-1.251c1.416-0.32,2.989-0.398,4.437-0.667c1.742-0.325,3.476-0.572,5.242-0.716
					c1.684-0.138,3.011,0.399,4.623,0.917c1.614,0.519,3.245,1.042,4.934,1.186c1.354,0.115,2.799-0.644,4.2-0.482
					c1.622,0.188,2.183,1.616,3.553,2.259c1.251,0.588,2.645,0.809,4.026,0.875c-0.11,1.61,0.943,3.041,1.941,4.308
					c0.692,0.878,1.384,1.756,2.075,2.633c1.908,2.42,4.067,3.149,6.94,3.996c2.362-0.612,4.749-0.199,5.645-3.129
					c0.489-1.599,0.221-3.318-0.013-4.973c-0.085-0.601-0.164-1.215-0.046-1.81c0.197-0.988,0.907-1.782,1.359-2.682
					c0.699-1.393,0.756-3.094,0.152-4.531c-0.714-1.696-2.296-3.07-2.41-4.906c-0.051-0.826,0.21-1.635,0.329-2.453
					c0.288-1.984-0.322-4.105-1.712-5.55c-1.122-1.166-2.656-1.846-3.88-2.904c-1.428-1.235-2.395-2.951-3.897-4.094
					c-1.321-1.005-3.193-1.653-4.821-1.301c-1.294,0.28-2.197,0.692-3.557,0.473c-1.215-0.195-2.368-0.661-3.483-1.165
					c-2.273-1.028-4.506-2.389-7.042-2.625c-3.413-0.318-6.694,1.569-9.105,4.005c-0.986,0.996-1.921,2.127-3.218,2.658
					c-0.829,0.339-1.74,0.402-2.632,0.484c-1.948,0.178-3.935,0.476-5.655,1.408c-1.72,0.932-3.146,2.612-3.29,4.563
					c-0.134,1.801,0.764,3.814-0.254,5.305c-0.544,0.797-1.493,1.187-2.343,1.643C332.862,134.326,332.249,136.305,332.906,138.468z
					"/>
				<path style="fill:none;stroke:#231F20;stroke-miterlimit:10;" d="M365.844,180.106c7.832-2.123,11.878-8.168,14.224-12.325"/>
				<path style="fill:#231F20;" d="M362.394,153.722c0.381,0.869,0.196,1.789-0.413,2.056c-0.609,0.267-1.411-0.221-1.792-1.089
					c-0.381-0.869-0.196-1.789,0.413-2.056C361.211,152.365,362.013,152.853,362.394,153.722z"/>
				<path style="fill:#231F20;" d="M348.914,158.695c0.381,0.869,0.196,1.789-0.413,2.056c-0.609,0.267-1.411-0.221-1.792-1.089
					c-0.381-0.869-0.196-1.789,0.413-2.056C347.731,157.339,348.534,157.826,348.914,158.695z"/>
				<path style="fill:none;stroke:#231F20;stroke-miterlimit:10;" d="M354.016,154.93c0.616,1.908,1.19,8.105,1.633,10.051
					c0.472,2.069,2.283,1.798,5.005,0.962"/>
				<path style="fill:none;stroke:#231F20;stroke-miterlimit:10;" d="M360.456,169.021c1.929-1.147,3.198-1.899,5.716-1.24"/>
				<path style="fill:none;stroke:#231F20;stroke-miterlimit:10;" d="M364.612,146.604c-2.684-1.247-6.764,1.027-7.915,4.083"/>
				<path style="fill:none;stroke:#231F20;stroke-miterlimit:10;" d="M348.462,154.532c-1.951-0.874-3.835-0.417-5.129,0.572"/>
				<path style="fill:#EF750D;" d="M340.283,138.661c9.654-1.601,20.343-5.834,28.909-10.565c4.766-2.633,9.037-5.547,12.612-8.992
					l4.581,4.338c0,0-4.867,8.128-16.362,14.798c-8.733,5.067-17.815,8.556-27.658,10.803
					C341.396,145.878,339.987,140.756,340.283,138.661z"/>
				<g>
					<path style="fill:none;stroke:#31212F;stroke-miterlimit:10;" d="M356.843,154.587c1.406,3.958,5.566,6.075,9.292,4.727
						c3.726-1.348,5.607-5.649,4.201-9.607c-1.406-3.958-5.566-6.075-9.292-4.727C357.318,146.327,355.437,150.628,356.843,154.587z
						"/>
					<path style="fill:none;stroke:#31212F;stroke-miterlimit:10;" d="M341.468,160.743c1.406,3.958,4.964,6.292,7.948,5.213
						c2.984-1.079,4.263-5.163,2.858-9.121c-1.406-3.958-4.964-6.292-7.948-5.213C341.341,152.701,340.062,156.784,341.468,160.743z
						"/>
					<line style="fill:none;stroke:#31212F;stroke-miterlimit:10;" x1="350.673" y1="153.967" x2="356.377" y2="152.146"/>
					<line style="fill:none;stroke:#31212F;stroke-miterlimit:10;" x1="369.051" y1="147.687" x2="380.412" y2="145.225"/>
				</g>
				<g>
					<path style="fill:#FFBF82;" d="M373.186,147.799c0.817-2.738,3.24-5.287,6.313-4.792c3.296,0.531,5.203,4.221,5.537,7.238
						c0.363,3.282-0.413,8.027-4.138,9.06c-2.086,0.578-4.448-0.36-5.161-2.494"/>
					<path style="fill:none;stroke:#231F20;stroke-miterlimit:10;" d="M384.917,154.03c-0.786,5.591-6.737,7.155-9.18,2.782"/>
					<path style="fill:none;stroke:#231F20;stroke-miterlimit:10;" d="M373.186,147.799c0.817-2.738,3.24-5.287,6.313-4.792"/>
					<line style="fill:none;stroke:#231F20;stroke-miterlimit:10;" x1="375.922" y1="153.658" x2="380.914" y2="147.274"/>
				</g>
				<path style="fill:none;stroke:#231F20;stroke-miterlimit:10;" d="M340.073,138.342c0.135,3.736,0.963,7.447,2.43,10.886"/>
				<path style="fill:none;stroke:#231F20;stroke-miterlimit:10;" d="M343.579,141.041c12.744-1.663,24.962-7.163,34.493-15.613
					c1.789-1.587,3.485-3.275,5.073-5.055"/>
			</g>
			<g>
				
					<rect x="344.145" y="275.654" transform="matrix(-1 -1.224647e-16 1.224647e-16 -1 774.5014 559.1401)" style="fill:#FFFFFF;" width="86.212" height="7.832"/>
				<path style="fill:#FFFFFF;" d="M303.914,272.47c-11.772,0.831-13.971,8.202-13.971,8.202s-2.199-7.371-13.971-8.202
					c-7.525-0.531-26.614,3.144-26.614,3.144v7.872h94.787v-7.832C344.145,275.654,311.439,271.939,303.914,272.47z"/>
				<path style="fill:none;stroke:#292944;stroke-miterlimit:10;" d="M249.358,278.912c0,0,19.089-3.64,26.614-3.27
					c11.772,0.578,13.971,5.649,13.971,5.649s2.199-5.071,13.971-5.649c7.525-0.37,40.231,2.061,40.231,2.061h86.212"/>
				<path style="fill:none;stroke:#292944;stroke-miterlimit:10;" d="M249.358,280.99c0,0,19.089-1.189,26.614-1.068
					c11.772,0.189,13.971,2.298,13.971,2.298s2.199-2.109,13.971-2.298c7.525-0.121,40.231-0.009,40.231-0.009l86.212-0.047"/>
				<rect x="246.851" y="281.716" style="fill:#E05D4F;" width="97.293" height="3.214"/>
				<rect x="344.145" y="281.716" style="fill:#BC4D44;" width="86.212" height="3.214"/>
				<line style="fill:none;stroke:#292944;stroke-miterlimit:10;" x1="344.145" y1="275.654" x2="344.145" y2="281.716"/>
			</g>
		</g>
		<g>
			<rect x="176.874" y="285.036" style="fill:#F9E4CA;" width="379.794" height="10.275"/>
			<g>
				
					<line style="fill:none;stroke:#59351B;stroke-width:2;stroke-miterlimit:10;" x1="181.653" y1="295.312" x2="181.653" y2="470.593"/>
				
					<line style="fill:none;stroke:#59351B;stroke-width:2;stroke-miterlimit:10;" x1="551.889" y1="295.312" x2="551.889" y2="470.593"/>
			</g>
		</g>
		
			<line style="fill:none;stroke:#231F20;stroke-width:1.5;stroke-miterlimit:10;" x1="55.084" y1="470.878" x2="694.916" y2="470.878"/>
		<g>
			<g>
				
					<line style="fill:none;stroke:#8C7E56;stroke-width:1.5;stroke-miterlimit:10;" x1="539.06" y1="113.508" x2="539.06" y2="116.885"/>
				
					<line style="fill:none;stroke:#8C7E56;stroke-width:1.5;stroke-miterlimit:10;" x1="539.06" y1="120.982" x2="539.06" y2="124.358"/>
				
					<line style="fill:none;stroke:#8C7E56;stroke-width:1.5;stroke-miterlimit:10;" x1="544.485" y1="118.933" x2="541.108" y2="118.933"/>
				
					<line style="fill:none;stroke:#8C7E56;stroke-width:1.5;stroke-miterlimit:10;" x1="537.011" y1="118.933" x2="533.634" y2="118.933"/>
			</g>
			<g>
				
					<line style="fill:none;stroke:#8C7E56;stroke-width:1.5;stroke-miterlimit:10;" x1="473.939" y1="361.259" x2="473.939" y2="364.636"/>
				
					<line style="fill:none;stroke:#8C7E56;stroke-width:1.5;stroke-miterlimit:10;" x1="473.939" y1="368.733" x2="473.939" y2="372.11"/>
				
					<line style="fill:none;stroke:#8C7E56;stroke-width:1.5;stroke-miterlimit:10;" x1="479.364" y1="366.685" x2="475.987" y2="366.685"/>
				
					<line style="fill:none;stroke:#8C7E56;stroke-width:1.5;stroke-miterlimit:10;" x1="471.89" y1="366.685" x2="468.513" y2="366.685"/>
			</g>
			<g>
				
					<line style="fill:none;stroke:#8C7E56;stroke-width:1.5;stroke-miterlimit:10;" x1="506.847" y1="96.076" x2="506.847" y2="99.453"/>
				
					<line style="fill:none;stroke:#8C7E56;stroke-width:1.5;stroke-miterlimit:10;" x1="506.847" y1="103.55" x2="506.847" y2="106.927"/>
				
					<line style="fill:none;stroke:#8C7E56;stroke-width:1.5;stroke-miterlimit:10;" x1="512.272" y1="101.502" x2="508.895" y2="101.502"/>
				
					<line style="fill:none;stroke:#8C7E56;stroke-width:1.5;stroke-miterlimit:10;" x1="504.798" y1="101.502" x2="501.421" y2="101.502"/>
			</g>
			<g>
				
					<line style="fill:none;stroke:#8C7E56;stroke-width:1.5;stroke-miterlimit:10;" x1="429.768" y1="53.758" x2="429.768" y2="57.135"/>
				
					<line style="fill:none;stroke:#8C7E56;stroke-width:1.5;stroke-miterlimit:10;" x1="429.768" y1="61.231" x2="429.768" y2="64.608"/>
				
					<line style="fill:none;stroke:#8C7E56;stroke-width:1.5;stroke-miterlimit:10;" x1="435.193" y1="59.183" x2="431.816" y2="59.183"/>
				
					<line style="fill:none;stroke:#8C7E56;stroke-width:1.5;stroke-miterlimit:10;" x1="427.72" y1="59.183" x2="424.343" y2="59.183"/>
			</g>
			<g>
				
					<line style="fill:none;stroke:#8C7E56;stroke-width:1.5;stroke-miterlimit:10;" x1="278.237" y1="87.999" x2="278.237" y2="91.376"/>
				
					<line style="fill:none;stroke:#8C7E56;stroke-width:1.5;stroke-miterlimit:10;" x1="278.237" y1="95.472" x2="278.237" y2="98.849"/>
				
					<line style="fill:none;stroke:#8C7E56;stroke-width:1.5;stroke-miterlimit:10;" x1="283.662" y1="93.424" x2="280.285" y2="93.424"/>
				
					<line style="fill:none;stroke:#8C7E56;stroke-width:1.5;stroke-miterlimit:10;" x1="276.188" y1="93.424" x2="272.811" y2="93.424"/>
			</g>
			<g>
				
					<line style="fill:none;stroke:#8C7E56;stroke-width:1.5;stroke-miterlimit:10;" x1="224.858" y1="298.161" x2="224.858" y2="301.537"/>
				
					<line style="fill:none;stroke:#8C7E56;stroke-width:1.5;stroke-miterlimit:10;" x1="224.858" y1="305.634" x2="224.858" y2="309.011"/>
				
					<line style="fill:none;stroke:#8C7E56;stroke-width:1.5;stroke-miterlimit:10;" x1="230.283" y1="303.586" x2="226.906" y2="303.586"/>
				
					<line style="fill:none;stroke:#8C7E56;stroke-width:1.5;stroke-miterlimit:10;" x1="222.809" y1="303.586" x2="219.432" y2="303.586"/>
			</g>
			<g>
				
					<line style="fill:none;stroke:#8C7E56;stroke-width:1.5;stroke-miterlimit:10;" x1="306.126" y1="185.683" x2="306.126" y2="189.06"/>
				
					<line style="fill:none;stroke:#8C7E56;stroke-width:1.5;stroke-miterlimit:10;" x1="306.126" y1="193.157" x2="306.126" y2="196.534"/>
				
					<line style="fill:none;stroke:#8C7E56;stroke-width:1.5;stroke-miterlimit:10;" x1="311.552" y1="191.109" x2="308.175" y2="191.109"/>
				
					<line style="fill:none;stroke:#8C7E56;stroke-width:1.5;stroke-miterlimit:10;" x1="304.078" y1="191.109" x2="300.701" y2="191.109"/>
			</g>
			<path style="fill:none;stroke:#D36F37;stroke-width:1.5;stroke-miterlimit:10;" d="M449.892,109.212
				c0,1.792-1.453,3.245-3.245,3.245c-1.792,0-3.245-1.453-3.245-3.245c0-1.792,1.453-3.245,3.245-3.245
				C448.439,105.967,449.892,107.42,449.892,109.212z"/>
			<path style="fill:none;stroke:#D36F37;stroke-width:1.5;stroke-miterlimit:10;" d="M563.526,154.672
				c0,3.586-2.907,6.494-6.494,6.494c-3.586,0-6.494-2.907-6.494-6.494c0-3.587,2.907-6.494,6.494-6.494
				C560.618,148.178,563.526,151.085,563.526,154.672z"/>
			<path style="fill:none;stroke:#D36F37;stroke-width:1.5;stroke-miterlimit:10;" d="M230.137,346.171
				c0,1.792-1.453,3.245-3.245,3.245s-3.245-1.453-3.245-3.245c0-1.792,1.453-3.245,3.245-3.245S230.137,344.379,230.137,346.171z"
				/>
			<path style="fill:none;stroke:#D36F37;stroke-width:1.5;stroke-miterlimit:10;" d="M295.113,131.169
				c0,1.792-1.453,3.245-3.245,3.245c-1.792,0-3.245-1.453-3.245-3.245s1.453-3.245,3.245-3.245
				C293.66,127.924,295.113,129.377,295.113,131.169z"/>
			<path style="fill:none;stroke:#D36F37;stroke-width:1.5;stroke-miterlimit:10;" d="M172.383,237.118
				c0,1.792-1.453,3.245-3.245,3.245c-1.792,0-3.245-1.453-3.245-3.245s1.453-3.245,3.245-3.245
				C170.93,233.873,172.383,235.326,172.383,237.118z"/>
			<path style="fill:none;stroke:#D36F37;stroke-width:1.5;stroke-miterlimit:10;" d="M368.26,80.236
				c0,3.156-2.558,5.714-5.714,5.714c-3.156,0-5.714-2.558-5.714-5.714c0-3.156,2.558-5.714,5.714-5.714
				C365.702,74.522,368.26,77.08,368.26,80.236z"/>
			<path style="fill:none;stroke:#D36F37;stroke-width:1.5;stroke-miterlimit:10;" d="M261.101,322.435
				c0,3.156-2.558,5.714-5.714,5.714c-3.156,0-5.714-2.558-5.714-5.714c0-3.156,2.558-5.714,5.714-5.714
				C258.543,316.721,261.101,319.28,261.101,322.435z"/>
			<path style="fill:none;stroke:#D36F37;stroke-width:1.5;stroke-miterlimit:10;" d="M544.846,213.84
				c0,1.792-1.453,3.245-3.245,3.245c-1.792,0-3.245-1.453-3.245-3.245s1.453-3.245,3.245-3.245
				C543.393,210.595,544.846,212.048,544.846,213.84z"/>
		</g>
	</g>
</g>
</svg>
