<svg width="654" height="343" viewBox="0 0 654 343" fill="none" xmlns="http://www.w3.org/2000/svg">
<path d="M43.9982 341.356C43.9982 341.356 -31.5874 260.201 31.2156 172.34C86.9385 94.3828 151.906 99.7118 199.571 131.347C219.872 144.821 278.404 133.008 328.221 53.6839C396.158 -54.4924 631.653 11.117 588.715 177.549C567.936 258.09 651.954 261.018 609.143 341.527L43.9982 341.356Z" fill="#EBF3FA"/>
<path d="M105.071 231.419L51.5791 280.651L100.811 334.143L154.303 284.911L105.071 231.419Z" fill="#DFEBFD"/>
<path d="M105.071 231.419L51.5791 280.651L61.4944 291.424L114.986 242.193L105.071 231.419Z" fill="#BED7FB"/>
<path d="M261.293 20.6966L297.973 25.9289L273.632 9.33838L272.394 14.6569L263.474 16.2724L261.293 20.6966Z" fill="#9EC3F6"/>
<path d="M297.973 25.9288L267.45 10.1917L237.534 8.68701L297.973 25.9288Z" fill="#CDE0FB"/>
<path d="M273.632 9.33841L297.973 25.9289L279.13 0L273.632 9.33841Z" fill="#CDE0FB"/>
<path d="M466.403 93.0585L457.177 99.6795L447.903 93.1304C449.959 90.2382 453.353 88.3262 457.177 88.3262C460.978 88.3259 464.348 90.1903 466.403 93.0585Z" fill="white"/>
<path d="M457.177 72.1919C447.903 72.1919 439.704 76.8049 434.733 83.8561L440.589 87.9669C444.27 82.7563 450.341 79.3622 457.177 79.3622C463.965 79.3622 469.988 82.7084 473.669 87.8473L479.501 83.6646C474.505 76.7095 466.355 72.1919 457.177 72.1919Z" fill="white"/>
<path d="M457.177 41.5259C437.554 41.5259 420.201 51.278 409.684 66.1924L415.54 70.3033C424.766 57.2529 439.991 48.6962 457.177 48.6962C474.219 48.6962 489.348 57.1096 498.598 69.9926L504.406 65.8099C493.866 51.1107 476.633 41.5259 457.177 41.5259Z" fill="white"/>
<path d="M457.177 58.3052C443.218 58.3052 430.837 65.2126 423.308 75.8012L429.164 79.9123C435.402 71.188 445.632 65.4755 457.177 65.4755C468.626 65.4755 478.784 71.0924 485.046 79.6972L490.854 75.5382C483.301 65.0932 471.016 58.3052 457.177 58.3052Z" fill="white"/>
<path d="M265.804 133.231L257.346 133.036C260.064 136.558 260.674 139.803 258.982 142.549C257.29 145.35 253.241 147.651 247.196 149.398C251.772 137.224 254.073 124.384 254.073 111.211C254.073 82.7223 242.989 54.8363 222.07 33.9755C201.821 13.7266 174.45 1.97217 144.835 1.97217C128.205 1.97217 112.136 5.6579 97.5229 12.7048C97.5182 12.7071 97.5132 12.7095 97.5085 12.712C92.8102 11.2783 88.234 10.1034 83.8187 9.20835C61.5301 4.6854 45.713 7.81119 39.2881 18.0106C33.174 27.7109 36.5023 42.3127 48.635 59.3429C48.6336 59.3456 48.6321 59.3483 48.6305 59.3509C45.9197 64.3592 43.3104 70.2999 41.3923 75.9905C18.5962 77.3493 6.39378 81.3612 1.95661 88.6274C-3.20175 97.0858 3.84248 108.438 26.3891 119.475C29.4952 121 32.823 122.498 36.3175 123.996C39.0184 147.727 49.8292 170.731 67.5721 188.474C77.6113 198.485 89.2866 206.362 102.293 211.88C142.138 228.688 189.637 220.818 222.07 188.474C231.832 178.712 239.57 167.342 245.033 154.751C256.153 152.449 263.475 148.844 266.387 144.074C268.411 140.774 268.161 137.113 265.804 133.231ZM239.708 151.118C232.303 152.449 223.068 153.226 212.28 153.337C195.541 153.541 176.315 152.219 156.055 149.549C157.76 145.837 159.431 142.024 161.061 138.123C167.348 140.227 173.449 141.893 179.268 143.073C185.935 144.427 192.018 145.095 197.448 145.095C210.176 145.095 219.295 141.42 223.799 134.271C224.54 133.094 225.145 131.845 225.61 130.526H219.122C219.015 130.723 218.9 130.919 218.781 131.109C215.436 136.419 207.96 139.162 197.463 139.16C192.442 139.16 186.727 138.533 180.446 137.258C174.971 136.147 169.229 134.587 163.309 132.623C164.872 128.714 166.391 124.73 167.857 120.686C171.813 109.781 175.198 98.9707 177.937 88.5897C200.134 91.862 223.324 91.9603 245.6 90.2803C247.01 97.114 247.722 104.108 247.722 111.211C247.723 125.049 245.033 138.472 239.708 151.118ZM104.53 205.274C101.374 204.129 99.7722 199.6 98.9841 196.002C97.7385 190.316 97.5132 182.329 98.3328 172.906C98.7471 168.14 99.4134 163.073 100.31 157.772C113.245 161.22 126.054 165.653 138.526 170.996C135.717 175.84 132.876 180.332 130.035 184.404C124.623 192.162 119.331 198.147 114.73 201.713C111.818 203.969 107.686 206.418 104.53 205.274ZM141.383 165.924C128.328 160.299 114.906 155.65 101.349 152.061C101.827 149.6 102.351 147.097 102.92 144.556C106.69 145.413 110.513 146.243 114.384 147.042C125.712 149.358 137.013 151.326 148.075 152.917C145.884 157.45 143.648 161.795 141.383 165.924ZM116.88 142.937C112.503 142.036 108.19 141.095 103.951 140.118C105.947 131.815 108.398 123.158 111.26 114.337C126.137 123.482 141.267 130.921 155.593 136.201C153.795 140.491 151.949 144.675 150.064 148.724C139.183 147.163 128.05 145.227 116.88 142.937ZM80.5444 30.8466C88.8138 47.7889 104.751 61.7479 121.901 71.0073C117.746 80.061 113.789 89.7235 110.15 99.7567C109.472 101.627 108.812 103.495 108.167 105.358C86.4328 91.2105 68.0319 74.977 55.961 59.2667C55.9594 59.2645 55.9576 59.2625 55.956 59.2602C62.3266 48.3921 70.6273 38.7972 80.5444 30.8466ZM173.478 15.1692C176.633 16.3137 178.235 20.8429 179.023 24.4409C180.269 30.1269 180.494 38.1136 179.675 47.5374C178.778 57.8525 176.712 69.5682 173.638 82.043C158.523 79.4424 143.419 75.1546 129.512 68.4047C135.439 56.0444 141.706 45.0215 147.972 36.0392C153.384 28.2811 158.677 22.2959 163.278 18.7302C165.678 16.8696 168.909 14.8783 171.738 14.8783C172.34 14.8783 172.924 14.9685 173.478 15.1692ZM172.2 87.6638C169.532 97.7019 166.246 108.157 162.417 118.713C160.942 122.782 159.414 126.788 157.842 130.714C143.46 125.433 128.195 117.881 113.188 108.552C113.963 106.285 114.764 104.01 115.59 101.73C119.147 91.9225 123.008 82.4833 127.056 73.6434C141.221 80.5083 156.565 84.9398 172.2 87.6638ZM217.577 38.4406C230.922 51.7857 239.775 67.8138 244.253 84.5748C220.535 86.3094 198.8 85.7647 179.372 82.9527C182.455 70.3557 184.53 58.5057 185.441 48.0386C186.446 36.4804 186.323 22.7895 181.637 15.085C195.212 20.3014 207.34 28.173 217.577 38.4406ZM144.835 8.29542C151.963 8.29542 158.974 9.01259 165.827 10.4357C157.744 13.9544 149.49 23.7477 143.226 32.7282C136.814 41.9192 130.412 53.1674 124.366 65.7586C108.045 56.8908 92.6299 43.2966 85.2611 27.2824C102.466 15.0451 123.156 8.29542 144.835 8.29542ZM44.3058 21.1731C47.6513 15.8626 55.1269 13.1219 65.6239 13.1219C70.6443 13.1219 76.3597 13.7485 82.6409 15.0239C85.0255 15.5065 87.4615 16.0747 89.9386 16.7283C89.9409 16.7287 89.9431 16.7294 89.9451 16.7301C74.9585 25.3972 61.7583 37.9405 51.9303 53.666C51.9285 53.6687 51.927 53.6716 51.9252 53.6743C42.6497 39.9019 39.8614 28.224 44.3058 21.1731ZM52.8733 64.953C52.8742 64.9512 52.8751 64.9494 52.8759 64.9479C65.5865 80.8348 84.3207 97.0759 106.21 111.161C103.106 120.608 100.458 129.892 98.3209 138.789C80.172 134.398 59.0776 128.188 42.4181 121.14C41.0366 107.325 42.5408 93.3411 46.6889 80.1506C48.2992 75.0352 50.4353 69.7631 52.8733 64.953ZM31.436 116.203C11.7734 106.607 2.78823 97.3447 6.80925 90.7719C10.054 85.4471 21.868 81.842 39.9497 80.511C36.3045 92.8139 35.0368 105.605 35.7898 118.255C34.2923 117.589 32.8504 116.896 31.436 116.203ZM97.2859 143.244C96.7251 145.746 96.2079 148.211 95.7333 150.638C94.4714 150.332 93.2091 150.032 91.9457 149.745C70.6006 144.886 54.5835 143.898 47.1588 143.731C45.3197 138.191 43.9673 132.525 43.1113 126.741C57.6536 132.335 74.0221 137.7 97.2859 143.244ZM49.31 149.601C57.2287 149.92 71.9093 151.119 90.6616 155.388C92.0035 155.693 93.3444 156.013 94.6844 156.34C93.7193 161.969 93.0071 167.348 92.5674 172.404C91.7342 181.984 91.6751 193.028 94.3471 200.916C86.2148 196.338 78.7571 190.674 72.0645 183.982C62.0878 174.005 54.4111 162.324 49.31 149.601ZM113.631 209.312C121.243 205.322 128.892 196.158 134.782 187.715C137.82 183.36 140.856 178.54 143.854 173.338C161.135 181.164 177.751 190.778 193.36 201.979C167.631 215.729 138.657 217.285 113.631 209.312ZM217.577 183.981C211.89 189.686 205.626 194.642 198.861 198.817C182.464 186.833 164.946 176.576 146.695 168.272C149.204 163.675 151.677 158.819 154.091 153.749C170.797 155.963 186.858 157.292 201.52 157.635C205.347 157.746 209.063 157.746 212.669 157.718C222.015 157.607 230.334 157.053 237.461 156.054C232.47 166.399 225.786 175.772 217.577 183.981Z" fill="#ADCBF9"/>
<path d="M215.243 150.279L200.136 329.902C200.136 329.902 198.553 340.79 206.652 340.809C219.969 340.841 272.933 340.809 272.933 340.809C272.933 340.809 262.911 338.543 263.032 333.443C263.175 327.432 280.689 148.579 280.689 148.579L215.243 150.279Z" fill="#D86713"/>
<path d="M277.231 337.55C274.612 337.558 224.024 337.717 211.056 337.55C205.404 337.48 204.413 332.525 204.366 329.318C204.343 327.781 204.538 326.645 204.538 326.645L204.931 321.976L205.932 310.077L206.816 299.564L207.953 286.055L208.91 274.652L219.644 147.018L285.091 145.32C285.091 145.32 277.714 220.169 272.497 274.652C271.915 280.723 271.36 286.544 270.848 291.977C270.682 293.712 270.523 295.408 270.367 297.059C269.883 302.214 269.441 306.948 269.056 311.128C268.853 313.331 268.666 315.378 268.497 317.253C267.831 324.6 267.441 329.293 267.436 330.185C267.433 330.705 267.477 331.188 267.563 331.638C268.637 337.363 276.248 337.55 277.231 337.55Z" fill="#F99746"/>
<path d="M56.3027 52.5356L93.1 200.343L98.1383 220.586L115.277 289.43H433.681L370.511 52.5356H56.3027Z" fill="#F99746"/>
<path d="M56.3023 52.5352L51.2026 54.2351L108.497 294.572L115.277 289.431L56.3023 52.5352Z" fill="#EE9849"/>
<path d="M108.497 294.572H424.941L433.68 289.431H115.277L108.497 294.572Z" fill="#D86713"/>
<path d="M219.623 340.878H288.138V337.622H219.623V340.878Z" fill="#F1A34F"/>
<path d="M418.256 245.778L366.591 55.6672H55.7935V52.5352H370.511L422.004 245.356L418.256 245.778Z" fill="#F1A34F"/>
<path d="M270.721 294.571L270.367 297.06L205.932 310.077L206.817 299.565L207.238 294.571H270.721Z" fill="#D86713"/>
<path opacity="0.4" d="M277.231 337.551C274.612 337.559 224.024 337.717 211.056 337.551C205.404 337.481 204.413 332.526 204.366 329.319L268.497 317.253C267.831 324.601 267.441 329.293 267.436 330.185C267.433 330.705 267.477 331.189 267.563 331.639C268.637 337.364 276.248 337.551 277.231 337.551Z" fill="#D86713"/>
<path opacity="0.4" d="M255.147 241.473L115.277 289.431L98.1387 220.585L255.147 241.473Z" fill="#D86713"/>
<path d="M56.3022 52.5352H370.511L421.492 242.924H102.081L56.3022 52.5352Z" fill="#699DEE"/>
<path d="M282.92 266.992C282.012 262.322 277.491 258.537 272.822 258.537C268.153 258.537 265.104 262.322 266.011 266.992C266.919 271.661 271.44 275.446 276.109 275.446C280.778 275.446 283.827 271.661 282.92 266.992Z" fill="#D86713"/>
<path d="M406.674 234.674H112.479L79.1612 101.95L76.6085 91.7724L74.4286 83.0907L72.6847 76.1401L69.3184 62.7334H359.273L359.476 63.4709L362.966 76.1401L364.883 83.0907L367.278 91.7724L370.084 101.95L406.674 234.674Z" fill="#E9F3FE"/>
<path d="M406.674 235.127H112.479L79.1612 102.403L76.6085 92.226L74.4286 83.5441L72.6847 76.5937L69.3184 63.187H359.273L359.476 63.9246L362.966 76.5937L364.883 83.5441L367.278 92.226L370.084 102.403L406.674 235.127Z" fill="#E9F3FE"/>
<path d="M362.966 76.1401H72.6847L69.3184 62.7334H359.161L359.476 63.4709L362.966 76.1401Z" fill="#AFCDFB"/>
<path d="M77.3841 69.4369C77.0339 68.0314 77.889 66.8921 79.2944 66.8921C80.6999 66.8921 82.1232 68.0314 82.4735 69.4369C82.8238 70.8423 81.9687 71.9817 80.5633 71.9817C79.1578 71.9817 77.7347 70.8423 77.3841 69.4369Z" fill="#E9F3FE"/>
<path d="M85.8393 69.4369C85.4888 68.0314 86.3442 66.8921 87.7496 66.8921C89.155 66.8921 90.5784 68.0314 90.9287 69.4369C91.2792 70.8423 90.4238 71.9817 89.0184 71.9817C87.613 71.9817 86.1898 70.8423 85.8393 69.4369Z" fill="#E9F3FE"/>
<path d="M94.9437 69.4369C94.5934 68.0314 95.4486 66.8921 96.854 66.8921C98.2594 66.8921 99.6828 68.0314 100.033 69.4369C100.384 70.8423 99.5283 71.9817 98.1228 71.9817C96.7174 71.9817 95.2942 70.8423 94.9437 69.4369Z" fill="#E9F3FE"/>
<path d="M204.123 235.128H175.034C174.755 232.854 174.509 230.451 174.288 227.944C173.898 223.447 173.599 218.611 173.378 213.579C173.325 212.418 173.279 211.247 173.236 210.068C173.18 208.568 173.132 207.049 173.089 205.523C173.018 202.933 172.962 200.312 172.922 197.675C172.919 197.673 172.919 197.668 172.919 197.665C172.869 194.304 172.843 190.92 172.835 187.549C172.835 187.546 172.835 187.546 172.835 187.546C172.833 186.704 172.833 185.863 172.833 185.024V185.021C172.833 184.23 172.835 183.445 172.838 182.659C172.863 175.402 172.973 168.284 173.127 161.665C173.462 147.021 174.004 134.819 174.293 128.953V128.951C174.41 126.543 174.486 125.204 174.486 125.204C174.488 125.204 174.491 125.207 174.493 125.207C174.559 125.217 175 125.298 175.695 125.465C176.204 125.59 176.851 125.759 177.586 125.985H177.588C178.253 126.185 178.985 126.433 179.756 126.725C179.758 126.725 179.761 126.725 179.763 126.728C181.074 127.232 182.486 127.876 183.814 128.684C183.834 128.695 183.854 128.705 183.875 128.715C186.047 130.063 188.009 131.851 188.904 134.211C189.672 136.216 191.469 146.991 193.641 161.303C193.702 161.711 193.763 162.121 193.826 162.537C194.975 170.137 196.217 178.664 197.464 187.371C198.785 196.598 200.105 206.022 201.319 214.755C202.357 222.246 203.317 229.224 204.123 235.128Z" fill="#2B478B"/>
<path d="M195.976 235.128H162.116C161.467 232.334 160.858 229.64 160.318 227.113C158.831 220.147 157.852 214.438 157.905 211.371C157.931 209.934 158.473 208.809 159.406 207.944C160.045 207.351 160.866 206.88 161.832 206.512C164.689 205.427 168.793 205.249 173.089 205.523C174.549 205.615 176.029 205.756 177.49 205.934C185.538 206.91 193.008 208.902 193.008 208.902C193.008 208.902 193.507 210.923 194.098 214.454C194.541 217.102 195.036 220.606 195.403 224.743C195.616 227.146 195.788 229.764 195.885 232.555C195.913 233.394 195.943 234.253 195.976 235.128Z" fill="#233862"/>
<path d="M180.339 211.412L180.002 213.858L178.362 225.736L178.083 227.764L177.066 235.128H141.779C141.505 230.261 141.252 225.518 141.203 221.384C141.198 220.925 141.196 220.476 141.196 220.035C141.196 213.81 141.743 209.194 143.528 208.028C145.551 206.707 152.26 207.07 159.406 207.944C160.118 208.03 160.836 208.124 161.553 208.221C165.718 208.781 169.885 209.473 173.236 210.068C174.975 210.378 176.494 210.661 177.675 210.887C179.343 211.207 180.339 211.412 180.339 211.412Z" fill="#C65447"/>
<path d="M141.196 131.33C141.196 131.33 160.582 118.795 174.487 125.206C176.703 126.227 179.23 129.078 181.04 131.072C186.066 136.61 195.887 224.587 195.887 224.587C195.887 224.587 168.008 234.028 141.196 221.382V131.33Z" fill="white"/>
<path d="M175.59 124.888C175.59 124.888 195.215 132.931 197.874 139.111C200.532 145.29 209.171 183.241 209.171 187.69C209.171 192.141 194.128 188.685 191.707 181.508C189.696 175.548 182.913 157.238 179.337 145.658L175.59 124.888Z" fill="#2B478B"/>
<path d="M171.514 131.016C167.229 131.856 160.936 130.961 156.328 127.924C158.408 122.955 159.261 119.032 159.565 116.493C159.582 116.358 159.595 116.227 159.609 116.101C159.746 114.785 159.726 113.892 159.662 113.482H170.738C170.738 113.482 173.767 114.867 173.767 115.824C173.767 116.336 173.771 116.825 173.78 117.293C173.802 118.567 173.853 119.679 173.92 120.633C174.13 123.741 174.487 125.206 174.487 125.206C174.487 125.206 175.84 130.168 171.514 131.016Z" fill="#FFB27D"/>
<path d="M173.92 120.634C165.528 122.255 160.657 117.669 159.565 116.493C159.41 116.325 159.33 116.225 159.33 116.225C159.419 116.181 159.512 116.141 159.609 116.101C162.733 114.836 169.822 115.842 173.78 117.293C173.802 118.567 173.853 119.678 173.92 120.634Z" fill="#E2915A"/>
<path d="M156.824 111.662C158.323 119.732 168.737 119.467 173.237 118.96C174.504 118.819 175.301 118.658 175.301 118.658C176.729 118.276 177.525 116.027 177.895 113.081C178.63 107.25 177.702 98.6909 176.717 96.502C175.235 93.208 172.443 89.6455 161.956 92.2158C151.467 94.7882 154.9 101.322 156.824 111.662Z" fill="#FFB27D"/>
<path d="M177.108 91.9997C175.674 90.0153 172.635 87.5908 169.875 86.0973C163.945 82.8893 156.356 86.1983 156.324 86.2122C147.758 89.9784 145.522 96.5316 150.063 106.74C154.865 117.535 159.438 116.32 159.438 116.32C159.438 116.32 158.467 115.717 158.555 112.352C158.56 112.161 158.568 112.001 158.576 111.864C158.62 111.174 158.377 110.483 157.862 110.023C156.798 109.073 156.279 106.202 157.17 105.402C158.245 104.437 159.755 105.609 160.238 106.51C160.659 107.146 161.414 107.37 162.118 106.925C164.784 105.24 163.052 101.869 165.599 99.8064C168.147 97.744 173.316 99.4756 177.138 97.832C182.14 95.9683 178.188 93.495 177.108 91.9997Z" fill="#233862"/>
<path d="M178.484 235.127H136.273C136.575 226.375 136.963 215.924 137.371 205.343C137.475 202.601 137.584 199.845 137.69 197.113C137.738 195.954 137.781 194.803 137.827 193.653C138.76 170.155 139.685 148.936 139.88 147.792C140.324 145.207 140.742 143.004 141.196 141.093C142.522 135.526 144.169 132.475 147.764 129.848C148.113 129.582 150.988 128.135 153.52 126.872C155.589 125.846 157.429 124.948 157.485 124.923V124.92H157.487C157.905 125.123 158.367 125.706 158.853 126.571C159.34 127.435 159.852 128.586 160.377 129.929C162.306 134.885 164.39 142.469 165.837 148.135C165.839 148.142 165.842 148.147 165.842 148.152C165.845 148.157 165.845 148.16 165.845 148.162C165.845 148.165 165.845 148.165 165.845 148.165C166.777 151.822 167.447 154.669 167.637 155.488C167.961 156.867 168.387 159.536 168.892 163.151V163.161C169.573 168.091 170.387 174.78 171.249 182.372V182.375C171.338 183.156 171.426 183.944 171.515 184.74C171.616 185.65 171.72 186.57 171.824 187.5V187.503C171.857 187.802 171.89 188.101 171.921 188.4V188.403C172.253 191.409 172.587 194.509 172.919 197.665C172.919 197.668 172.919 197.673 172.922 197.675C173.206 200.276 177.15 202.159 177.424 204.808C177.444 205.001 177.464 205.391 177.49 205.934C177.54 207.054 177.601 208.831 177.675 210.887C177.705 211.802 177.738 212.773 177.773 213.764C177.928 218.169 178.118 222.996 178.333 225.318C178.344 225.427 178.354 225.566 178.361 225.736C178.387 226.2 178.407 226.882 178.425 227.738C178.461 229.559 178.478 232.162 178.484 235.127Z" fill="#2B478B"/>
<path d="M149.69 157.265C149.677 157.318 149.018 181.025 166.851 183.905C184.684 186.785 172.835 187.546 172.835 187.546C172.835 187.546 139.282 186.12 138.728 185.234C138.174 184.348 149.69 157.265 149.69 157.265Z" fill="#233862"/>
<path d="M164.757 194.083C164.757 194.083 164.422 194.32 163.78 194.734C163.769 194.738 163.758 194.747 163.747 194.754C161.026 196.491 152.952 201.225 141.195 204.399C139.962 204.733 138.686 205.05 137.372 205.343C137.476 202.6 137.585 199.846 137.691 197.113C136.138 196.991 134.652 196.794 133.271 196.502C133.318 196.141 133.367 195.78 133.413 195.418C134.909 194.805 136.395 194.213 137.828 193.653C138.996 193.196 140.125 192.762 141.195 192.359C146.025 190.525 149.605 189.282 149.605 189.282L163.9 193.81L164.757 194.083Z" fill="#233862"/>
<path d="M168.541 193.686C168.541 193.686 166.704 194.144 163.78 194.734C163.769 194.734 163.76 194.736 163.749 194.74C158.357 195.823 149.292 197.343 141.195 197.261C140.001 197.248 138.827 197.201 137.691 197.113C136.138 196.991 134.651 196.794 133.271 196.501C130.312 195.877 127.833 194.82 126.211 193.167C114.167 180.9 132.784 136.869 136.698 132.585C141.268 127.583 149.609 125.828 154.214 125.226C154.407 125.201 154.591 125.177 154.77 125.155C156.39 124.962 157.429 124.922 157.486 124.92C157.488 124.92 157.488 124.92 157.488 124.92C157.488 124.92 157.127 126.081 156.522 128.05C156.288 128.812 156.015 129.696 155.716 130.682C152.887 139.946 147.429 158.153 145.023 168.421C144.142 172.178 143.67 174.872 143.884 175.676C144.824 179.183 154.555 180.986 160.72 181.784C163.292 182.116 165.244 182.273 165.68 182.307C165.711 182.307 165.74 182.309 165.771 182.313L166.128 183.775L166.981 187.282L167.82 190.727L168.541 193.686Z" fill="#2B478B"/>
<path d="M202.133 214.792L160.768 213.049L169.16 161.498L210.525 163.241L202.133 214.792Z" fill="#F99746"/>
<path d="M165.771 182.313C165.771 182.313 173.824 181.751 174.228 183.628C175.169 188.003 167.305 191.596 164.757 191.351C162.21 191.105 163.918 182.021 165.771 182.313Z" fill="#FFB27D"/>
<path d="M208.264 173.709C208.264 173.709 200.56 171.3 199.733 173.032C197.805 177.071 204.625 182.385 207.16 182.736C209.695 183.086 210.134 173.853 208.264 173.709Z" fill="#FFB27D"/>
<path d="M158.324 122.331C158.324 122.331 154.937 123.946 153.238 126.383C153.238 126.383 165.901 148.367 165.844 148.161C165.788 147.955 161.564 125.147 158.324 122.331Z" fill="#233862"/>
<path d="M174.095 122.641C175.211 123.062 177.35 125.253 177.832 126.465L179.337 145.658C179.337 145.658 176.123 131.572 174.487 125.205C174.071 123.587 174.148 123.096 174.095 122.641Z" fill="#233862"/>
<path d="M182.873 162.075C182.873 162.075 183.2 160.645 185.082 160.811C186.965 160.977 197.543 161.498 197.543 161.498C197.543 161.498 199.583 161.464 199.394 162.772L182.873 162.075Z" fill="#C65447"/>
<path d="M170.739 113.482C170.739 113.482 172.112 114.734 174.327 114.346C175.641 114.116 176.376 112.408 176.376 112.408C176.376 112.408 173.852 111.954 170.739 113.482Z" fill="white"/>
<path d="M366.747 129.524L336.191 129.637L326.283 91.7037L356.838 91.5908L366.747 129.524Z" fill="white"/>
<path d="M349.26 96.575L336.448 96.6222L336.301 96.0612L349.113 96.0137L349.26 96.575Z" fill="#ADCBF9"/>
<path d="M351.306 98.1345L335.22 98.1939L335.074 97.6328L351.159 97.5732L351.306 98.1345Z" fill="#ADCBF9"/>
<path d="M355.728 105.854L334.835 105.932L334.688 105.37L355.582 105.293L355.728 105.854Z" fill="#ADCBF9"/>
<path d="M356.211 107.704L335.318 107.781L335.171 107.22L356.064 107.143L356.211 107.704Z" fill="#ADCBF9"/>
<path d="M356.695 109.553L335.801 109.631L335.655 109.069L356.548 108.992L356.695 109.553Z" fill="#ADCBF9"/>
<path d="M357.177 111.403L336.284 111.48L336.138 110.919L357.031 110.842L357.177 111.403Z" fill="#ADCBF9"/>
<path d="M357.661 113.253L336.768 113.33L336.621 112.768L357.514 112.691L357.661 113.253Z" fill="#ADCBF9"/>
<path d="M358.836 117.754L337.943 117.831L337.796 117.27L358.69 117.192L358.836 117.754Z" fill="#ADCBF9"/>
<path d="M359.319 119.603L338.426 119.68L338.279 119.119L359.173 119.042L359.319 119.603Z" fill="#ADCBF9"/>
<path d="M359.802 121.453L338.909 121.53L338.763 120.969L359.656 120.892L359.802 121.453Z" fill="#ADCBF9"/>
<path d="M360.286 123.302L339.392 123.38L339.246 122.818L360.139 122.741L360.286 123.302Z" fill="#ADCBF9"/>
<path d="M360.769 125.152L339.876 125.229L339.729 124.668L360.622 124.591L360.769 125.152Z" fill="#ADCBF9"/>
<path d="M379.059 176.661L348.504 176.774L338.596 138.84L369.151 138.728L379.059 176.661Z" fill="white"/>
<path d="M361.572 143.712L348.76 143.76L348.614 143.198L361.426 143.151L361.572 143.712Z" fill="#ADCBF9"/>
<path d="M363.618 145.271L347.532 145.331L347.386 144.769L363.471 144.71L363.618 145.271Z" fill="#ADCBF9"/>
<path d="M368.041 152.991L347.147 153.069L347.001 152.507L367.894 152.43L368.041 152.991Z" fill="#ADCBF9"/>
<path d="M368.524 154.841L347.631 154.918L347.484 154.357L368.377 154.28L368.524 154.841Z" fill="#ADCBF9"/>
<path d="M369.007 156.691L348.114 156.768L347.967 156.206L368.86 156.129L369.007 156.691Z" fill="#ADCBF9"/>
<path d="M369.49 158.54L348.597 158.617L348.45 158.056L369.343 157.979L369.49 158.54Z" fill="#ADCBF9"/>
<path d="M369.973 160.39L349.08 160.467L348.934 159.906L369.827 159.829L369.973 160.39Z" fill="#ADCBF9"/>
<path d="M371.149 164.891L350.255 164.968L350.109 164.406L371.002 164.329L371.149 164.891Z" fill="#ADCBF9"/>
<path d="M371.632 166.74L350.739 166.818L350.592 166.256L371.485 166.179L371.632 166.74Z" fill="#ADCBF9"/>
<path d="M372.115 168.59L351.222 168.667L351.075 168.105L371.968 168.028L372.115 168.59Z" fill="#ADCBF9"/>
<path d="M372.598 170.439L351.705 170.516L351.558 169.955L372.451 169.878L372.598 170.439Z" fill="#ADCBF9"/>
<path d="M373.081 172.289L352.188 172.366L352.042 171.805L372.935 171.728L373.081 172.289Z" fill="#ADCBF9"/>
<path d="M391.454 224.115L360.899 224.228L350.991 186.294L381.546 186.181L391.454 224.115Z" fill="white"/>
<path d="M373.968 191.165L361.155 191.213L361.009 190.651L373.821 190.604L373.968 191.165Z" fill="#ADCBF9"/>
<path d="M376.013 192.725L359.928 192.784L359.781 192.223L375.866 192.164L376.013 192.725Z" fill="#ADCBF9"/>
<path d="M380.436 200.445L359.543 200.522L359.396 199.961L380.289 199.884L380.436 200.445Z" fill="#ADCBF9"/>
<path d="M380.919 202.295L360.025 202.372L359.879 201.81L380.772 201.733L380.919 202.295Z" fill="#ADCBF9"/>
<path d="M381.402 204.144L360.509 204.221L360.362 203.66L381.256 203.583L381.402 204.144Z" fill="#ADCBF9"/>
<path d="M381.885 205.993L360.992 206.071L360.846 205.509L381.739 205.432L381.885 205.993Z" fill="#ADCBF9"/>
<path d="M382.368 207.843L361.475 207.92L361.329 207.359L382.222 207.282L382.368 207.843Z" fill="#ADCBF9"/>
<path d="M383.544 212.344L362.651 212.421L362.504 211.86L383.397 211.783L383.544 212.344Z" fill="#ADCBF9"/>
<path d="M384.027 214.194L363.134 214.271L362.987 213.709L383.88 213.632L384.027 214.194Z" fill="#ADCBF9"/>
<path d="M384.51 216.043L363.617 216.12L363.47 215.559L384.363 215.482L384.51 216.043Z" fill="#ADCBF9"/>
<path d="M384.993 217.892L364.1 217.97L363.954 217.408L384.847 217.331L384.993 217.892Z" fill="#ADCBF9"/>
<path d="M385.476 219.742L364.583 219.819L364.437 219.258L385.33 219.181L385.476 219.742Z" fill="#ADCBF9"/>
<path d="M351.278 224.434L244.41 224.829L213.654 107.08L227.576 92.0886L316.623 91.7598L351.278 224.434Z" fill="white"/>
<path d="M287.185 111.659L249.522 111.798L249.091 110.148L286.754 110.009L287.185 111.659Z" fill="#ADCBF9"/>
<path d="M293.199 116.243L245.912 116.417L245.481 114.767L292.768 114.593L293.199 116.243Z" fill="#ADCBF9"/>
<path d="M306.2 138.938L244.78 139.165L244.349 137.514L305.769 137.288L306.2 138.938Z" fill="#ADCBF9"/>
<path d="M307.621 144.375L246.2 144.602L245.77 142.952L307.19 142.725L307.621 144.375Z" fill="#ADCBF9"/>
<path d="M309.041 149.812L247.62 150.039L247.189 148.389L308.61 148.162L309.041 149.812Z" fill="#ADCBF9"/>
<path d="M310.461 155.249L249.041 155.476L248.61 153.826L310.03 153.599L310.461 155.249Z" fill="#ADCBF9"/>
<path d="M311.881 160.686L250.461 160.913L250.03 159.263L311.45 159.036L311.881 160.686Z" fill="#ADCBF9"/>
<path d="M315.337 173.918L253.917 174.144L253.486 172.494L314.907 172.268L315.337 173.918Z" fill="#ADCBF9"/>
<path d="M316.758 179.355L255.338 179.582L254.907 177.931L316.327 177.705L316.758 179.355Z" fill="#ADCBF9"/>
<path d="M318.178 184.792L256.758 185.019L256.327 183.369L317.747 183.142L318.178 184.792Z" fill="#ADCBF9"/>
<path d="M319.598 190.229L258.178 190.456L257.747 188.806L319.167 188.579L319.598 190.229Z" fill="#ADCBF9"/>
<path d="M321.018 195.667L259.598 195.894L259.167 194.244L320.587 194.017L321.018 195.667Z" fill="#ADCBF9"/>
<path d="M213.654 107.079L231.475 107.014L227.576 92.0884L213.654 107.079Z" fill="#ADCBF9"/>
<path d="M471.053 316.782H384.053V286.055H471.332C478.117 286.055 483.618 291.556 483.618 298.341V304.217C483.618 311.156 477.993 316.782 471.053 316.782Z" fill="#FCECDB"/>
<path d="M557.877 298.697V303.32C557.877 305.79 557.213 308.103 556.051 310.091C553.719 314.092 549.38 316.782 544.413 316.782H381.387C380.309 316.782 379.435 315.908 379.435 314.831V314.138C379.435 313.061 380.309 312.187 381.387 312.187H480.767C481.298 311.539 481.766 310.838 482.162 310.091C483.092 308.338 483.618 306.339 483.618 304.217V298.341C483.618 297.26 483.479 296.211 483.216 295.213C482.771 293.522 481.974 291.973 480.912 290.651H381.387C380.309 290.651 379.435 289.777 379.435 288.698V288.008C379.435 286.929 380.309 286.055 381.387 286.055H545.234C551.008 286.055 555.878 289.925 557.39 295.213C557.707 296.321 557.877 297.489 557.877 298.697Z" fill="#699DEE"/>
<path d="M557.389 295.213H483.215C482.77 293.522 481.974 291.973 480.911 290.651H381.387C380.308 290.651 379.434 289.777 379.434 288.698V288.008C379.434 286.929 380.308 286.055 381.387 286.055H545.234C551.008 286.055 555.877 289.925 557.389 295.213Z" fill="#548EE2"/>
<path d="M384.054 301.418L396.125 301.935L384.054 302.246V301.418Z" fill="#F4D2B8"/>
<path d="M384.054 306.24L412.772 306.756L384.054 307.068V306.24Z" fill="#F4D2B8"/>
<path d="M404.802 340.618H497.416V316.718H404.05C397.658 316.718 392.476 321.9 392.476 328.292C392.476 335.099 397.994 340.618 404.802 340.618Z" fill="#2B478B"/>
<path d="M492.099 340.618H597.503V316.718H491.833C485.333 316.718 480.064 321.986 480.064 328.486V328.583C480.064 335.23 485.453 340.618 492.099 340.618Z" fill="#FCECDB"/>
<path d="M473.026 340.618H601.163C602.15 340.618 602.95 339.818 602.95 338.831C602.95 337.843 602.15 337.043 601.163 337.043H473.026C472.039 337.043 471.239 337.843 471.239 338.831C471.239 339.817 472.039 340.618 473.026 340.618Z" fill="#2B478B"/>
<path d="M473.026 320.292H601.163C602.15 320.292 602.95 319.492 602.95 318.505C602.95 317.518 602.15 316.718 601.163 316.718H473.026C472.039 316.718 471.239 317.518 471.239 318.505C471.239 319.492 472.039 320.292 473.026 320.292Z" fill="#2B478B"/>
<path d="M597.503 328.667L583.265 329.069L597.503 329.311V328.667Z" fill="#F4D2B8"/>
<path d="M597.503 323.167L563.63 323.569L597.503 323.811V323.167Z" fill="#F4D2B8"/>
<path d="M563.979 323.489C563.979 323.489 565.43 324.516 565.911 326.204C565.996 326.499 566.05 326.815 566.061 327.148C566.141 329.391 566.061 334.466 566.061 334.466L570.347 331.929L574.622 334.466V327.587C574.622 326.286 574.255 325.021 573.574 324.192C573.244 323.791 572.843 323.489 572.39 323.489H563.979Z" fill="#699DEE"/>
<path d="M563.979 323.489C563.979 323.489 565.43 324.516 565.911 326.204L574.5 326.304C574.5 326.304 574.162 323.887 572.39 323.489H563.979Z" fill="#568CDB"/>
<path d="M481.321 286.119H575.946V251.004H481.01C473.432 251.004 467.289 257.148 467.289 264.725V272.088C467.289 279.837 473.571 286.119 481.321 286.119Z" fill="#FCECDB"/>
<path d="M469.515 264.629V272.186C469.538 275.414 471.325 278.214 473.95 279.711C475.243 280.446 476.737 280.866 478.324 280.866H581.084C582.289 280.866 583.265 281.843 583.265 283.047V283.938C583.265 285.143 582.289 286.119 581.084 286.119H403.564C398.47 286.119 393.969 283.587 391.25 279.711C389.536 277.269 388.529 274.296 388.529 271.084V265.121C388.529 262.921 389.033 260.838 389.931 258.982C392.214 254.26 397.049 251.004 402.646 251.004H581.085C582.289 251.004 583.265 251.979 583.265 253.183V254.075C583.265 255.279 582.289 256.255 581.085 256.255H478.01C475.547 256.255 473.317 257.304 471.759 258.982C470.38 260.469 469.529 262.448 469.515 264.629Z" fill="#B5453C"/>
<path d="M575.946 268.562L562.772 269.152L575.946 269.508V268.562Z" fill="#F4D2B8"/>
<path d="M575.946 260.481L544.605 261.071L575.946 261.427V260.481Z" fill="#F4D2B8"/>
<path d="M544.928 260.954C544.928 260.954 546.996 262.067 547.681 263.898C547.802 264.218 547.88 264.561 547.896 264.922C548.01 267.353 547.896 272.857 547.896 272.857L554.003 270.105L560.093 272.857V265.398C560.093 263.987 559.57 262.615 558.6 261.717C558.13 261.282 557.559 260.954 556.913 260.954H544.928Z" fill="#F99746"/>
<path d="M544.928 260.954C544.928 260.954 546.996 262.067 547.681 263.898L559.919 264.007C559.919 264.007 559.439 261.386 556.913 260.954H544.928Z" fill="#ED7D2B"/>
<path d="M482.967 237.985C488.383 247.411 495.195 251.05 495.195 251.05H523.536C523.536 251.05 478.835 230.793 482.967 237.985Z" fill="#233862"/>
<path d="M504.733 310.921C505.472 311.767 505.566 312.713 505.2 313.723C505.2 313.727 505.197 313.733 505.193 313.737C504.517 315.605 502.284 317.691 499.69 319.774C499.359 320.041 499.064 320.285 498.807 320.51C498.74 320.569 498.672 320.628 498.609 320.688C498.557 320.734 498.506 320.782 498.456 320.825C496.037 323.055 496.947 323.566 492.602 328.091C487.646 333.247 484.235 333.34 483.264 332.87C482.443 332.469 484.111 329.735 485.96 326.662C486.049 326.513 486.137 326.363 486.229 326.213C486.475 325.805 486.72 325.39 486.964 324.979C489.13 321.28 488.574 319.545 488.061 314.04C487.643 309.566 481.102 289.049 481.102 289.049L490.597 287.413C490.597 287.413 493.457 303.751 496.608 306.267C498.293 307.608 500.179 307.625 501.798 308.619C501.913 308.689 502.025 308.759 502.135 308.832C503.055 309.442 503.993 310.072 504.733 310.921Z" fill="#FFB27D"/>
<path d="M504.733 310.92C505.472 311.767 505.566 312.713 505.2 313.723C505.2 313.727 505.197 313.733 505.193 313.737C504.366 315.603 502.188 317.678 499.681 319.755C499.353 320.026 499.064 320.276 498.807 320.51C498.74 320.569 498.672 320.628 498.609 320.688C498.557 320.733 498.506 320.781 498.456 320.825C496.037 323.055 496.947 323.566 492.601 328.091C487.646 333.246 484.235 333.339 483.264 332.869C482.443 332.469 484.111 329.735 485.96 326.661C486.925 326.308 491.405 324.488 494.793 320.153C497.776 316.345 499.766 311.453 501.798 308.619C501.913 308.688 502.025 308.759 502.135 308.832C503.055 309.442 503.993 310.072 504.733 310.92Z" fill="#233862"/>
<path d="M428.163 304.99C427.577 307.921 423.399 307.432 418.73 306.291C414.062 305.151 415.172 306.507 408.528 305.771C401.885 305.036 399.872 302.558 399.669 301.571C399.488 300.694 402.771 300.385 406.292 299.98C406.735 299.93 407.179 299.875 407.624 299.82C411.599 299.321 414.511 296.756 418.122 294.649C421.542 292.654 426.646 284.523 426.646 284.523L435.758 285.245C435.758 285.245 430.976 292.507 429.127 295.664C428.04 297.521 428.097 299.977 428.233 301.873C428.304 302.904 428.371 303.957 428.163 304.99Z" fill="#FFB27D"/>
<path d="M418.73 306.291C414.062 305.15 415.172 306.507 408.528 305.771C401.885 305.036 399.872 302.558 399.669 301.571C399.488 300.694 402.771 300.385 406.292 299.979L406.324 300.047C406.324 300.047 410.309 302.872 415.839 303.004C420.346 303.114 425.12 301.823 428.233 301.873C428.303 302.904 428.37 303.958 428.162 304.99C427.577 307.921 423.399 307.432 418.73 306.291Z" fill="#233862"/>
<path d="M463.079 246.731L471.596 269.65L482.716 299.575C482.716 299.575 485.734 299.867 488.623 299.035C491.284 298.266 494.336 296.254 494.336 296.254C494.336 296.254 491.249 264.123 485.489 245.678C484.013 240.944 482.358 237.115 480.533 234.959C471.604 224.406 463.079 246.731 463.079 246.731Z" fill="#233862"/>
<path d="M471.738 210.333C477.319 208.533 493.233 210.844 509.22 213.973L512.567 208.453L547.099 205.756C547.099 205.756 558.493 231.025 552.255 247.126C551.338 249.492 549.516 251.01 546.411 251.06C546.409 251.061 545.908 251.058 545.906 251.06C545.906 251.06 525.354 251.048 518.68 251.048C501.508 251.048 482.337 239.243 479.857 238.747C475.798 237.935 474.174 246.054 470.115 254.578C466.056 263.103 431.958 292.329 431.958 292.329C431.958 292.329 426.718 292.381 424.553 291.569C422.225 290.696 421.373 289.562 421.373 289.562C421.373 289.562 459.155 214.392 471.738 210.333Z" fill="#2B478B"/>
<path d="M512.771 160.898C525.067 167.669 550.012 181.704 550.142 181.613C550.142 181.613 559.311 185.068 564.512 181.614C573.182 175.856 577.831 160.361 561.977 147.025C554.069 140.375 548.451 138.756 547.598 128.137C547.135 122.375 539.259 103.361 526.174 105.12C525.08 105.267 518.35 105.581 513.926 107.904C502.654 113.823 494.337 158.277 512.771 160.898Z" fill="#233862"/>
<path d="M523.077 155.135C523.023 155.17 529.127 157.254 533.209 155.447C537.049 153.75 539.957 147.432 539.9 147.429C538.154 147.348 536.236 145.821 534.759 135.801L534.015 136.068L521.509 140.568C521.509 140.568 522.415 144.581 523.001 148.401C523.495 151.609 523.76 154.682 523.077 155.135Z" fill="#FFB27D"/>
<path d="M521.509 140.567C521.509 140.567 522.415 144.58 523.001 148.401C530.184 147.108 533.004 139.951 534.015 136.067L521.509 140.567Z" fill="#ED975D"/>
<path d="M519.647 144.551C519.647 144.551 536.757 142.254 535.163 131.62C533.569 120.987 534.703 113.529 523.711 114.545C512.719 115.562 511.21 119.937 510.879 123.616C510.548 127.295 515.155 144.874 519.647 144.551Z" fill="#FFB27D"/>
<path d="M511.502 117.787C511.502 117.787 522.456 127.226 529.906 127.987C537.357 128.748 540.177 126.357 540.177 126.357C540.177 126.357 535.786 122.711 533.143 116.826C532.364 115.092 530.719 113.902 528.824 113.738C523.504 113.279 513.419 113.069 511.502 117.787Z" fill="#233862"/>
<path d="M518.35 116.941C518.35 116.941 514.685 120.484 513.531 123.112C512.417 125.648 512.084 131.713 512.97 134.122C512.97 134.122 507.261 123.021 510.493 117.627C513.921 111.908 518.35 116.941 518.35 116.941Z" fill="#233862"/>
<path d="M508.669 180.341C509.187 214.977 508.811 207.739 512.6 211.026C513.513 211.817 516.079 212.289 519.457 212.512C530.078 213.217 548.747 211.467 549.457 209.504C551.907 202.713 550.178 200.603 552.222 190.206C552.435 189.1 552.698 187.903 553.008 186.599C554.712 179.458 556.371 177.029 550.325 165.556C544.842 155.164 539.146 146.729 538.634 147.033C524.169 155.62 523.003 148.403 523.003 148.403C523.003 148.403 508.416 163.446 508.669 180.341Z" fill="white"/>
<path d="M471.596 269.65L482.716 299.575C482.716 299.575 485.733 299.866 488.623 299.035C491.283 298.266 494.336 296.254 494.336 296.254C494.336 296.254 491.249 264.123 485.489 245.678L471.596 269.65Z" fill="#2B478B"/>
<path d="M523.002 148.401C523.002 148.401 508.118 150.924 506.37 157.333C504.622 163.741 494.336 201.415 494.336 201.415C494.336 201.415 501.903 202.774 505.399 199.279C508.894 195.783 517.562 166.848 517.562 166.848L523.002 148.401Z" fill="white"/>
<path d="M519.457 212.512C530.077 213.217 548.747 211.467 549.457 209.504C551.907 202.713 550.177 200.603 552.221 190.206L547.099 175.781C547.099 175.781 547.946 191.844 543.209 196.069C538.477 200.293 523.814 204.224 521.511 207.755C520.4 209.448 519.67 211.148 519.457 212.512Z" fill="#EBF3FF"/>
<path d="M531.625 205.756C531.625 205.756 521.147 203.423 519.457 204.353C517.766 205.282 513.634 208.669 513.117 209.847C512.599 211.026 516.881 208.953 518.273 208.579C519.175 208.337 521.549 209.162 522.724 209.554C527.669 211.202 530.699 210.355 530.699 210.355L531.625 205.756Z" fill="#FFB27D"/>
<path d="M538.643 147.026C538.643 147.026 552.712 147.893 557.582 154.686C564.438 164.248 578.038 205 570.244 210.435C561.466 216.555 530.294 212.036 530.294 212.036C530.294 212.036 529.257 207.187 530.7 204.842C532.143 202.496 555.598 198.708 556.68 197.625C557.763 196.542 543.149 176.516 543.149 173.269C543.149 170.021 538.643 147.026 538.643 147.026Z" fill="white"/>
<path d="M518.95 207.269C518.95 207.269 516.754 210.101 516.034 210.439C515.315 210.777 514.85 210.693 514.85 210.693L516.329 208.03L518.95 207.269Z" fill="#FFB27D"/>
<path d="M519.457 204.353L513.074 207.453C513.074 207.453 513.346 207.897 514.132 207.861C514.918 207.825 516.9 207.1 516.9 207.1L519.457 204.353Z" fill="#FFB27D"/>
<path d="M516.035 214.778H465.543L450.354 177.007H500.768L516.035 214.778Z" fill="#F99746"/>
<path d="M464.952 213.306H531.626V214.778H465.544L464.952 213.306Z" fill="#ED7D2B"/>
<path d="M478.289 195.892C477.908 194.564 478.676 193.488 480.003 193.488C481.331 193.488 482.716 194.565 483.097 195.892C483.478 197.22 482.71 198.296 481.382 198.296C480.055 198.296 478.669 197.22 478.289 195.892Z" fill="white"/>
<path d="M57.2028 229.61L56.1275 230.355C54.9797 231.151 53.3984 230.864 52.6028 229.716L46.3492 220.694C45.5537 219.546 45.8401 217.964 46.9882 217.169L48.5283 216.101C48.7532 215.946 49.062 216.002 49.2179 216.227C49.3738 216.452 49.3178 216.76 49.0929 216.916L47.5529 217.984C46.8541 218.468 46.6798 219.431 47.1641 220.129L53.4177 229.152C53.9019 229.851 54.8643 230.025 55.5629 229.541L56.6384 228.795C57.337 228.311 57.5115 227.349 57.0272 226.65L52.8759 220.66C52.72 220.436 52.776 220.127 53.0008 219.971C53.2259 219.815 53.5348 219.871 53.6907 220.096L57.8421 226.085C58.6374 227.233 58.3507 228.814 57.2028 229.61Z" fill="#AFCDFB"/>
<path d="M64.0582 238.508L62.1304 239.844C60.3407 241.085 57.8032 240.534 56.4742 238.616L47.0722 225.051C46.9163 224.826 46.9723 224.518 47.1974 224.362C47.4222 224.206 47.7311 224.262 47.8872 224.487L57.2892 238.052C58.307 239.52 60.2255 239.959 61.566 239.03L63.4938 237.693C64.8343 236.764 65.0968 234.814 64.0792 233.345L53.3699 217.894C52.3521 216.426 50.4336 215.987 49.0931 216.916C48.8682 217.072 48.5594 217.016 48.4032 216.791C48.2474 216.566 48.3034 216.257 48.5284 216.102C50.3182 214.861 52.8556 215.412 54.1847 217.329L64.8941 232.78C66.2227 234.698 65.848 237.268 64.0582 238.508Z" fill="#AFCDFB"/>
<path d="M76.9919 309.357L77.2239 311.267C77.4714 313.307 76.0134 315.168 73.9734 315.415L57.9404 317.361C55.9006 317.609 54.0394 316.151 53.7921 314.111L53.46 311.374C53.4114 310.974 53.6963 310.611 54.0961 310.562C54.4959 310.514 54.8594 310.799 54.908 311.198L55.2401 313.935C55.3907 315.177 56.5233 316.064 57.7648 315.914L73.798 313.968C75.0395 313.817 75.9271 312.685 75.7764 311.443L75.5444 309.532C75.3938 308.291 74.261 307.403 73.0197 307.554L62.3764 308.846C61.9766 308.894 61.6131 308.609 61.5645 308.21C61.5159 307.81 61.8008 307.446 62.2006 307.398L72.8439 306.106C74.8834 305.858 76.7444 307.317 76.9919 309.357Z" fill="#AFCDFB"/>
<path d="M93.2758 306.542L93.6915 309.968C94.0774 313.148 91.6193 316.072 88.2117 316.486L64.1073 319.411C63.7076 319.46 63.344 319.175 63.2954 318.775C63.2471 318.376 63.5317 318.012 63.9315 317.963L88.0359 315.038C90.645 314.721 92.5327 312.526 92.2437 310.144L91.8278 306.718C91.5389 304.336 89.1809 302.656 86.5716 302.972L59.1152 306.305C56.5059 306.621 54.6184 308.817 54.9076 311.199C54.956 311.599 54.6713 311.962 54.2715 312.011C53.8717 312.059 53.5082 311.774 53.4598 311.375C53.0739 308.194 55.532 305.27 58.9396 304.857L86.396 301.525C89.8035 301.111 92.8899 303.362 93.2758 306.542Z" fill="#AFCDFB"/>
<path d="M354.593 83.0114C354.876 81.8168 354.136 80.6198 352.941 80.3377C351.747 80.0556 350.55 80.7953 350.268 81.9899C349.985 83.1845 350.725 84.3815 351.92 84.6636C353.114 84.9456 354.311 84.2059 354.593 83.0114Z" fill="#F99746"/>
<path d="M652.615 342.172H4.51235C4.10762 342.172 3.77637 341.841 3.77637 341.436V341.185C3.77637 340.78 4.10762 340.449 4.51235 340.449H652.615C653.02 340.449 653.351 340.78 653.351 341.185V341.436C653.351 341.841 653.02 342.172 652.615 342.172Z" fill="#2E3552"/>
</svg>
